<svg xmlns="http://www.w3.org/2000/svg" version="1.1" xmlns:xlink="http://www.w3.org/1999/xlink" xmlns:svgjs="http://svgjs.dev/svgjs" width="1440" height="560" preserveAspectRatio="none" viewBox="0 0 1440 560"><g mask="url(&quot;#SvgjsMask1106&quot;)" fill="none"><rect width="1440" height="560" x="0" y="0" fill="rgba(102, 42, 136, 1)"></rect><g mask="url(&quot;#SvgjsMask1107&quot;)"><path d="M379.5 544.5L379.5 511.5L16.5 148.5L16.5 16.5" stroke-width="5.5" stroke="rgba(246, 240, 30, 1)"></path><path d="M371.25 544.5 a8.25 8.25 0 1 0 16.5 0 a8.25 8.25 0 1 0 -16.5 0zM8.25 16.5 a8.25 8.25 0 1 0 16.5 0 a8.25 8.25 0 1 0 -16.5 0z" fill="rgba(246, 240, 30, 1)"></path><path d="M1237.5 181.5L874.5 181.5L610.5 445.5" stroke-width="5.5" stroke="rgba(246, 240, 30, 1)"></path><path d="M1229.25 181.5 a8.25 8.25 0 1 0 16.5 0 a8.25 8.25 0 1 0 -16.5 0zM602.25 445.5 a8.25 8.25 0 1 0 16.5 0 a8.25 8.25 0 1 0 -16.5 0z" fill="rgba(246, 240, 30, 1)"></path><path d="M214.5 247.5L214.5 313.5L445.5 544.5L478.5 544.5L775.5 247.5" stroke-width="5.5" stroke="rgba(246, 240, 30, 1)"></path><path d="M206.25 247.5 a8.25 8.25 0 1 0 16.5 0 a8.25 8.25 0 1 0 -16.5 0zM767.25 247.5 a8.25 8.25 0 1 0 16.5 0 a8.25 8.25 0 1 0 -16.5 0z" fill="rgba(246, 240, 30, 1)"></path><path d="M115.5 148.5L181.5 214.5L181.5 280.5" stroke-width="5.5" stroke="rgba(246, 240, 30, 1)"></path><path d="M107.25 148.5 a8.25 8.25 0 1 0 16.5 0 a8.25 8.25 0 1 0 -16.5 0zM173.25 280.5 a8.25 8.25 0 1 0 16.5 0 a8.25 8.25 0 1 0 -16.5 0z" fill="rgba(246, 240, 30, 1)"></path><path d="M544.5 379.5L544.5 247.5L346.5 49.5L148.5 49.5L49.5 148.5" stroke-width="5.5" stroke="rgba(246, 240, 30, 1)"></path><path d="M536.25 379.5 a8.25 8.25 0 1 0 16.5 0 a8.25 8.25 0 1 0 -16.5 0zM41.25 148.5 a8.25 8.25 0 1 0 16.5 0 a8.25 8.25 0 1 0 -16.5 0z" fill="rgba(246, 240, 30, 1)"></path><path d="M742.5 346.5L1303.5 346.5L1369.5 412.5" stroke-width="5.5" stroke="rgba(246, 240, 30, 1)"></path><path d="M734.25 346.5 a8.25 8.25 0 1 0 16.5 0 a8.25 8.25 0 1 0 -16.5 0zM1361.25 412.5 a8.25 8.25 0 1 0 16.5 0 a8.25 8.25 0 1 0 -16.5 0z" fill="rgba(246, 240, 30, 1)"></path><path d="M742.5 82.5L676.5 16.5L610.5 16.5L478.5 148.5" stroke-width="5.5" stroke="rgba(246, 240, 30, 1)"></path><path d="M734.25 82.5 a8.25 8.25 0 1 0 16.5 0 a8.25 8.25 0 1 0 -16.5 0zM470.25 148.5 a8.25 8.25 0 1 0 16.5 0 a8.25 8.25 0 1 0 -16.5 0z" fill="rgba(246, 240, 30, 1)"></path><path d="M313.5 181.5L346.5 181.5L412.5 247.5L511.5 247.5" stroke-width="5.5" stroke="rgba(246, 240, 30, 1)"></path><path d="M305.25 181.5 a8.25 8.25 0 1 0 16.5 0 a8.25 8.25 0 1 0 -16.5 0zM503.25 247.5 a8.25 8.25 0 1 0 16.5 0 a8.25 8.25 0 1 0 -16.5 0z" fill="rgba(246, 240, 30, 1)"></path><path d="M676.5 478.5L676.5 412.5L709.5 379.5L742.5 379.5L907.5 544.5L1237.5 544.5" stroke-width="5.5" stroke="rgba(246, 240, 30, 1)"></path><path d="M668.25 478.5 a8.25 8.25 0 1 0 16.5 0 a8.25 8.25 0 1 0 -16.5 0zM1229.25 544.5 a8.25 8.25 0 1 0 16.5 0 a8.25 8.25 0 1 0 -16.5 0z" fill="rgba(246, 240, 30, 1)"></path><path d="M1402.5 445.5L1402.5 544.5" stroke-width="5.5" stroke="rgba(246, 240, 30, 1)"></path><path d="M1394.25 445.5 a8.25 8.25 0 1 0 16.5 0 a8.25 8.25 0 1 0 -16.5 0zM1394.25 544.5 a8.25 8.25 0 1 0 16.5 0 a8.25 8.25 0 1 0 -16.5 0z" fill="rgba(246, 240, 30, 1)"></path><path d="M1204.5 115.5L1171.5 148.5L808.5 148.5L775.5 115.5L709.5 115.5L577.5 247.5" stroke-width="5.5" stroke="rgba(246, 240, 30, 1)"></path><path d="M1196.25 115.5 a8.25 8.25 0 1 0 16.5 0 a8.25 8.25 0 1 0 -16.5 0zM569.25 247.5 a8.25 8.25 0 1 0 16.5 0 a8.25 8.25 0 1 0 -16.5 0z" fill="rgba(246, 240, 30, 1)"></path><path d="M49.5 445.5L214.5 445.5L247.5 412.5" stroke-width="5.5" stroke="rgba(246, 240, 30, 1)"></path><path d="M41.25 445.5 a8.25 8.25 0 1 0 16.5 0 a8.25 8.25 0 1 0 -16.5 0zM239.25 412.5 a8.25 8.25 0 1 0 16.5 0 a8.25 8.25 0 1 0 -16.5 0z" fill="rgba(246, 240, 30, 1)"></path><path d="M181.5 412.5L49.5 280.5L49.5 247.5L16.5 214.5" stroke-width="5.5" stroke="rgba(246, 240, 30, 1)"></path><path d="M173.25 412.5 a8.25 8.25 0 1 0 16.5 0 a8.25 8.25 0 1 0 -16.5 0zM8.25 214.5 a8.25 8.25 0 1 0 16.5 0 a8.25 8.25 0 1 0 -16.5 0z" fill="rgba(246, 240, 30, 1)"></path><path d="M445.5 16.5L511.5 82.5" stroke-width="5.5" stroke="rgba(246, 240, 30, 1)"></path><path d="M437.25 16.5 a8.25 8.25 0 1 0 16.5 0 a8.25 8.25 0 1 0 -16.5 0zM503.25 82.5 a8.25 8.25 0 1 0 16.5 0 a8.25 8.25 0 1 0 -16.5 0z" fill="rgba(246, 240, 30, 1)"></path><path d="M280.5 445.5L181.5 544.5L16.5 544.5" stroke-width="5.5" stroke="rgba(246, 240, 30, 1)"></path><path d="M272.25 445.5 a8.25 8.25 0 1 0 16.5 0 a8.25 8.25 0 1 0 -16.5 0zM8.25 544.5 a8.25 8.25 0 1 0 16.5 0 a8.25 8.25 0 1 0 -16.5 0z" fill="rgba(246, 240, 30, 1)"></path><path d="M643.5 313.5L676.5 313.5L808.5 181.5L841.5 181.5" stroke-width="5.5" stroke="rgba(246, 240, 30, 1)"></path><path d="M635.25 313.5 a8.25 8.25 0 1 0 16.5 0 a8.25 8.25 0 1 0 -16.5 0zM833.25 181.5 a8.25 8.25 0 1 0 16.5 0 a8.25 8.25 0 1 0 -16.5 0z" fill="rgba(246, 240, 30, 1)"></path><path d="M1369.5 49.5L1369.5 379.5L1435.5 445.5L1435.5 544.5" stroke-width="5.5" stroke="rgba(246, 240, 30, 1)"></path><path d="M1361.25 49.5 a8.25 8.25 0 1 0 16.5 0 a8.25 8.25 0 1 0 -16.5 0zM1427.25 544.5 a8.25 8.25 0 1 0 16.5 0 a8.25 8.25 0 1 0 -16.5 0z" fill="rgba(246, 240, 30, 1)"></path><path d="M1138.5 82.5L1105.5 115.5L808.5 115.5L775.5 82.5L775.5 16.5" stroke-width="5.5" stroke="rgba(246, 240, 30, 1)"></path><path d="M1130.25 82.5 a8.25 8.25 0 1 0 16.5 0 a8.25 8.25 0 1 0 -16.5 0zM767.25 16.5 a8.25 8.25 0 1 0 16.5 0 a8.25 8.25 0 1 0 -16.5 0z" fill="rgba(246, 240, 30, 1)"></path><path d="M247.5 544.5L313.5 478.5" stroke-width="5.5" stroke="rgba(246, 240, 30, 1)"></path><path d="M239.25 544.5 a8.25 8.25 0 1 0 16.5 0 a8.25 8.25 0 1 0 -16.5 0zM305.25 478.5 a8.25 8.25 0 1 0 16.5 0 a8.25 8.25 0 1 0 -16.5 0z" fill="rgba(246, 240, 30, 1)"></path><path d="M1336.5 280.5L1336.5 16.5" stroke-width="5.5" stroke="rgba(246, 240, 30, 1)"></path><path d="M1328.25 280.5 a8.25 8.25 0 1 0 16.5 0 a8.25 8.25 0 1 0 -16.5 0zM1328.25 16.5 a8.25 8.25 0 1 0 16.5 0 a8.25 8.25 0 1 0 -16.5 0z" fill="rgba(246, 240, 30, 1)"></path><path d="M973.5 280.5L907.5 280.5L874.5 247.5L874.5 214.5" stroke-width="5.5" stroke="rgba(246, 240, 30, 1)"></path><path d="M965.25 280.5 a8.25 8.25 0 1 0 16.5 0 a8.25 8.25 0 1 0 -16.5 0zM866.25 214.5 a8.25 8.25 0 1 0 16.5 0 a8.25 8.25 0 1 0 -16.5 0z" fill="rgba(246, 240, 30, 1)"></path><path d="M1204.5 511.5L1369.5 511.5" stroke-width="5.5" stroke="rgba(246, 240, 30, 1)"></path><path d="M1196.25 511.5 a8.25 8.25 0 1 0 16.5 0 a8.25 8.25 0 1 0 -16.5 0zM1361.25 511.5 a8.25 8.25 0 1 0 16.5 0 a8.25 8.25 0 1 0 -16.5 0z" fill="rgba(246, 240, 30, 1)"></path><path d="M1171.5 445.5L1237.5 379.5L1303.5 379.5L1369.5 445.5L1369.5 478.5" stroke-width="5.5" stroke="rgba(246, 240, 30, 1)"></path><path d="M1163.25 445.5 a8.25 8.25 0 1 0 16.5 0 a8.25 8.25 0 1 0 -16.5 0zM1361.25 478.5 a8.25 8.25 0 1 0 16.5 0 a8.25 8.25 0 1 0 -16.5 0z" fill="rgba(246, 240, 30, 1)"></path><path d="M1039.5 247.5L907.5 247.5" stroke-width="5.5" stroke="rgba(246, 240, 30, 1)"></path><path d="M1031.25 247.5 a8.25 8.25 0 1 0 16.5 0 a8.25 8.25 0 1 0 -16.5 0zM899.25 247.5 a8.25 8.25 0 1 0 16.5 0 a8.25 8.25 0 1 0 -16.5 0z" fill="rgba(246, 240, 30, 1)"></path><path d="M247.5 247.5L478.5 478.5L478.5 511.5" stroke-width="5.5" stroke="rgba(246, 240, 30, 1)"></path><path d="M239.25 247.5 a8.25 8.25 0 1 0 16.5 0 a8.25 8.25 0 1 0 -16.5 0zM470.25 511.5 a8.25 8.25 0 1 0 16.5 0 a8.25 8.25 0 1 0 -16.5 0z" fill="rgba(246, 240, 30, 1)"></path><path d="M1402.5 49.5L1402.5 247.5L1435.5 280.5L1435.5 412.5" stroke-width="5.5" stroke="rgba(246, 240, 30, 1)"></path><path d="M1394.25 49.5 a8.25 8.25 0 1 0 16.5 0 a8.25 8.25 0 1 0 -16.5 0zM1427.25 412.5 a8.25 8.25 0 1 0 16.5 0 a8.25 8.25 0 1 0 -16.5 0z" fill="rgba(246, 240, 30, 1)"></path><path d="M181.5 181.5L280.5 82.5L346.5 82.5L379.5 115.5L379.5 181.5L412.5 214.5L478.5 214.5" stroke-width="5.5" stroke="rgba(246, 240, 30, 1)"></path><path d="M173.25 181.5 a8.25 8.25 0 1 0 16.5 0 a8.25 8.25 0 1 0 -16.5 0zM470.25 214.5 a8.25 8.25 0 1 0 16.5 0 a8.25 8.25 0 1 0 -16.5 0z" fill="rgba(246, 240, 30, 1)"></path><path d="M808.5 478.5L709.5 478.5L643.5 544.5L511.5 544.5" stroke-width="5.5" stroke="rgba(246, 240, 30, 1)"></path><path d="M800.25 478.5 a8.25 8.25 0 1 0 16.5 0 a8.25 8.25 0 1 0 -16.5 0zM503.25 544.5 a8.25 8.25 0 1 0 16.5 0 a8.25 8.25 0 1 0 -16.5 0z" fill="rgba(246, 240, 30, 1)"></path><path d="M1006.5 412.5L1171.5 412.5L1204.5 379.5" stroke-width="5.5" stroke="rgba(246, 240, 30, 1)"></path><path d="M998.25 412.5 a8.25 8.25 0 1 0 16.5 0 a8.25 8.25 0 1 0 -16.5 0zM1196.25 379.5 a8.25 8.25 0 1 0 16.5 0 a8.25 8.25 0 1 0 -16.5 0z" fill="rgba(246, 240, 30, 1)"></path><path d="M1105.5 280.5L1039.5 214.5L907.5 214.5" stroke-width="5.5" stroke="rgba(246, 240, 30, 1)"></path><path d="M1097.25 280.5 a8.25 8.25 0 1 0 16.5 0 a8.25 8.25 0 1 0 -16.5 0zM899.25 214.5 a8.25 8.25 0 1 0 16.5 0 a8.25 8.25 0 1 0 -16.5 0z" fill="rgba(246, 240, 30, 1)"></path><path d="M1303.5 478.5L874.5 478.5L775.5 379.5" stroke-width="5.5" stroke="rgba(246, 240, 30, 1)"></path><path d="M1295.25 478.5 a8.25 8.25 0 1 0 16.5 0 a8.25 8.25 0 1 0 -16.5 0zM767.25 379.5 a8.25 8.25 0 1 0 16.5 0 a8.25 8.25 0 1 0 -16.5 0z" fill="rgba(246, 240, 30, 1)"></path><path d="M148.5 313.5L148.5 346.5L214.5 412.5" stroke-width="5.5" stroke="rgba(246, 240, 30, 1)"></path><path d="M140.25 313.5 a8.25 8.25 0 1 0 16.5 0 a8.25 8.25 0 1 0 -16.5 0zM206.25 412.5 a8.25 8.25 0 1 0 16.5 0 a8.25 8.25 0 1 0 -16.5 0z" fill="rgba(246, 240, 30, 1)"></path><path d="M16.5 445.5L82.5 511.5L181.5 511.5L214.5 478.5" stroke-width="5.5" stroke="rgba(246, 240, 30, 1)"></path><path d="M8.25 445.5 a8.25 8.25 0 1 0 16.5 0 a8.25 8.25 0 1 0 -16.5 0zM206.25 478.5 a8.25 8.25 0 1 0 16.5 0 a8.25 8.25 0 1 0 -16.5 0z" fill="rgba(246, 240, 30, 1)"></path><path d="M907.5 379.5L907.5 445.5" stroke-width="5.5" stroke="rgba(246, 240, 30, 1)"></path><path d="M899.25 379.5 a8.25 8.25 0 1 0 16.5 0 a8.25 8.25 0 1 0 -16.5 0zM899.25 445.5 a8.25 8.25 0 1 0 16.5 0 a8.25 8.25 0 1 0 -16.5 0z" fill="rgba(246, 240, 30, 1)"></path><path d="M742.5 544.5L775.5 511.5L841.5 511.5L874.5 544.5" stroke-width="5.5" stroke="rgba(246, 240, 30, 1)"></path><path d="M734.25 544.5 a8.25 8.25 0 1 0 16.5 0 a8.25 8.25 0 1 0 -16.5 0zM866.25 544.5 a8.25 8.25 0 1 0 16.5 0 a8.25 8.25 0 1 0 -16.5 0z" fill="rgba(246, 240, 30, 1)"></path><path d="M1105.5 214.5L1105.5 247.5L1171.5 313.5L1336.5 313.5" stroke-width="5.5" stroke="rgba(246, 240, 30, 1)"></path><path d="M1097.25 214.5 a8.25 8.25 0 1 0 16.5 0 a8.25 8.25 0 1 0 -16.5 0zM1328.25 313.5 a8.25 8.25 0 1 0 16.5 0 a8.25 8.25 0 1 0 -16.5 0z" fill="rgba(246, 240, 30, 1)"></path><path d="M643.5 280.5L577.5 346.5L577.5 412.5L544.5 445.5L478.5 445.5L280.5 247.5L280.5 115.5" stroke-width="5.5" stroke="rgba(246, 240, 30, 1)"></path><path d="M635.25 280.5 a8.25 8.25 0 1 0 16.5 0 a8.25 8.25 0 1 0 -16.5 0zM272.25 115.5 a8.25 8.25 0 1 0 16.5 0 a8.25 8.25 0 1 0 -16.5 0z" fill="rgba(246, 240, 30, 1)"></path><path d="M544.5 214.5L577.5 214.5L709.5 82.5" stroke-width="5.5" stroke="rgba(246, 240, 30, 1)"></path><path d="M536.25 214.5 a8.25 8.25 0 1 0 16.5 0 a8.25 8.25 0 1 0 -16.5 0zM701.25 82.5 a8.25 8.25 0 1 0 16.5 0 a8.25 8.25 0 1 0 -16.5 0z" fill="rgba(246, 240, 30, 1)"></path><path d="M1171.5 115.5L1270.5 16.5" stroke-width="5.5" stroke="rgba(246, 240, 30, 1)"></path><path d="M1163.25 115.5 a8.25 8.25 0 1 0 16.5 0 a8.25 8.25 0 1 0 -16.5 0zM1262.25 16.5 a8.25 8.25 0 1 0 16.5 0 a8.25 8.25 0 1 0 -16.5 0z" fill="rgba(246, 240, 30, 1)"></path><path d="M841.5 16.5L808.5 49.5L808.5 82.5" stroke-width="5.5" stroke="rgba(246, 240, 30, 1)"></path><path d="M833.25 16.5 a8.25 8.25 0 1 0 16.5 0 a8.25 8.25 0 1 0 -16.5 0zM800.25 82.5 a8.25 8.25 0 1 0 16.5 0 a8.25 8.25 0 1 0 -16.5 0z" fill="rgba(246, 240, 30, 1)"></path><path d="M610.5 247.5L709.5 148.5L775.5 148.5" stroke-width="5.5" stroke="rgba(246, 240, 30, 1)"></path><path d="M602.25 247.5 a8.25 8.25 0 1 0 16.5 0 a8.25 8.25 0 1 0 -16.5 0zM767.25 148.5 a8.25 8.25 0 1 0 16.5 0 a8.25 8.25 0 1 0 -16.5 0z" fill="rgba(246, 240, 30, 1)"></path><path d="M973.5 445.5L973.5 379.5" stroke-width="5.5" stroke="rgba(246, 240, 30, 1)"></path><path d="M965.25 445.5 a8.25 8.25 0 1 0 16.5 0 a8.25 8.25 0 1 0 -16.5 0zM965.25 379.5 a8.25 8.25 0 1 0 16.5 0 a8.25 8.25 0 1 0 -16.5 0z" fill="rgba(246, 240, 30, 1)"></path><path d="M577.5 181.5L676.5 82.5L676.5 49.5" stroke-width="5.5" stroke="rgba(246, 240, 30, 1)"></path><path d="M569.25 181.5 a8.25 8.25 0 1 0 16.5 0 a8.25 8.25 0 1 0 -16.5 0zM668.25 49.5 a8.25 8.25 0 1 0 16.5 0 a8.25 8.25 0 1 0 -16.5 0z" fill="rgba(246, 240, 30, 1)"></path><path d="M1237.5 148.5L1303.5 214.5L1303.5 280.5" stroke-width="5.5" stroke="rgba(246, 240, 30, 1)"></path><path d="M1229.25 148.5 a8.25 8.25 0 1 0 16.5 0 a8.25 8.25 0 1 0 -16.5 0zM1295.25 280.5 a8.25 8.25 0 1 0 16.5 0 a8.25 8.25 0 1 0 -16.5 0z" fill="rgba(246, 240, 30, 1)"></path><path d="M841.5 82.5L1105.5 82.5L1171.5 16.5L1237.5 16.5" stroke-width="5.5" stroke="rgba(246, 240, 30, 1)"></path><path d="M833.25 82.5 a8.25 8.25 0 1 0 16.5 0 a8.25 8.25 0 1 0 -16.5 0zM1229.25 16.5 a8.25 8.25 0 1 0 16.5 0 a8.25 8.25 0 1 0 -16.5 0z" fill="rgba(246, 240, 30, 1)"></path><path d="M49.5 346.5L49.5 313.5L16.5 280.5L16.5 247.5" stroke-width="5.5" stroke="rgba(246, 240, 30, 1)"></path><path d="M41.25 346.5 a8.25 8.25 0 1 0 16.5 0 a8.25 8.25 0 1 0 -16.5 0zM8.25 247.5 a8.25 8.25 0 1 0 16.5 0 a8.25 8.25 0 1 0 -16.5 0z" fill="rgba(246, 240, 30, 1)"></path><path d="M412.5 445.5L412.5 478.5L445.5 511.5" stroke-width="5.5" stroke="rgba(246, 240, 30, 1)"></path><path d="M404.25 445.5 a8.25 8.25 0 1 0 16.5 0 a8.25 8.25 0 1 0 -16.5 0zM437.25 511.5 a8.25 8.25 0 1 0 16.5 0 a8.25 8.25 0 1 0 -16.5 0z" fill="rgba(246, 240, 30, 1)"></path><path d="M379.5 412.5L280.5 313.5L247.5 313.5" stroke-width="5.5" stroke="rgba(246, 240, 30, 1)"></path><path d="M371.25 412.5 a8.25 8.25 0 1 0 16.5 0 a8.25 8.25 0 1 0 -16.5 0zM239.25 313.5 a8.25 8.25 0 1 0 16.5 0 a8.25 8.25 0 1 0 -16.5 0z" fill="rgba(246, 240, 30, 1)"></path><path d="M115.5 313.5L115.5 280.5L82.5 247.5" stroke-width="5.5" stroke="rgba(246, 240, 30, 1)"></path><path d="M107.25 313.5 a8.25 8.25 0 1 0 16.5 0 a8.25 8.25 0 1 0 -16.5 0zM74.25 247.5 a8.25 8.25 0 1 0 16.5 0 a8.25 8.25 0 1 0 -16.5 0z" fill="rgba(246, 240, 30, 1)"></path><path d="M148.5 478.5L82.5 478.5" stroke-width="5.5" stroke="rgba(246, 240, 30, 1)"></path><path d="M140.25 478.5 a8.25 8.25 0 1 0 16.5 0 a8.25 8.25 0 1 0 -16.5 0zM74.25 478.5 a8.25 8.25 0 1 0 16.5 0 a8.25 8.25 0 1 0 -16.5 0z" fill="rgba(246, 240, 30, 1)"></path><path d="M1006.5 313.5L874.5 313.5L841.5 280.5L808.5 280.5L775.5 313.5" stroke-width="5.5" stroke="rgba(246, 240, 30, 1)"></path><path d="M998.25 313.5 a8.25 8.25 0 1 0 16.5 0 a8.25 8.25 0 1 0 -16.5 0zM767.25 313.5 a8.25 8.25 0 1 0 16.5 0 a8.25 8.25 0 1 0 -16.5 0z" fill="rgba(246, 240, 30, 1)"></path><path d="M511.5 280.5L346.5 280.5L313.5 247.5L313.5 214.5" stroke-width="5.5" stroke="rgba(246, 240, 30, 1)"></path><path d="M503.25 280.5 a8.25 8.25 0 1 0 16.5 0 a8.25 8.25 0 1 0 -16.5 0zM305.25 214.5 a8.25 8.25 0 1 0 16.5 0 a8.25 8.25 0 1 0 -16.5 0z" fill="rgba(246, 240, 30, 1)"></path><path d="M1072.5 445.5L1006.5 445.5" stroke-width="5.5" stroke="rgba(246, 240, 30, 1)"></path><path d="M1064.25 445.5 a8.25 8.25 0 1 0 16.5 0 a8.25 8.25 0 1 0 -16.5 0zM998.25 445.5 a8.25 8.25 0 1 0 16.5 0 a8.25 8.25 0 1 0 -16.5 0z" fill="rgba(246, 240, 30, 1)"></path><path d="M1435.5 148.5L1435.5 16.5" stroke-width="5.5" stroke="rgba(246, 240, 30, 1)"></path><path d="M1427.25 148.5 a8.25 8.25 0 1 0 16.5 0 a8.25 8.25 0 1 0 -16.5 0zM1427.25 16.5 a8.25 8.25 0 1 0 16.5 0 a8.25 8.25 0 1 0 -16.5 0z" fill="rgba(246, 240, 30, 1)"></path><path d="M709.5 181.5L709.5 247.5L676.5 280.5" stroke-width="5.5" stroke="rgba(246, 240, 30, 1)"></path><path d="M701.25 181.5 a8.25 8.25 0 1 0 16.5 0 a8.25 8.25 0 1 0 -16.5 0zM668.25 280.5 a8.25 8.25 0 1 0 16.5 0 a8.25 8.25 0 1 0 -16.5 0z" fill="rgba(246, 240, 30, 1)"></path><path d="M1435.5 247.5L1435.5 181.5" stroke-width="5.5" stroke="rgba(246, 240, 30, 1)"></path><path d="M1427.25 247.5 a8.25 8.25 0 1 0 16.5 0 a8.25 8.25 0 1 0 -16.5 0zM1427.25 181.5 a8.25 8.25 0 1 0 16.5 0 a8.25 8.25 0 1 0 -16.5 0z" fill="rgba(246, 240, 30, 1)"></path><path d="M1204.5 445.5L1237.5 412.5L1303.5 412.5L1336.5 445.5L1336.5 478.5" stroke-width="5.5" stroke="rgba(246, 240, 30, 1)"></path><path d="M1196.25 445.5 a8.25 8.25 0 1 0 16.5 0 a8.25 8.25 0 1 0 -16.5 0zM1328.25 478.5 a8.25 8.25 0 1 0 16.5 0 a8.25 8.25 0 1 0 -16.5 0z" fill="rgba(246, 240, 30, 1)"></path><path d="M148.5 247.5L148.5 214.5L115.5 181.5L82.5 181.5" stroke-width="5.5" stroke="rgba(246, 240, 30, 1)"></path><path d="M140.25 247.5 a8.25 8.25 0 1 0 16.5 0 a8.25 8.25 0 1 0 -16.5 0zM74.25 181.5 a8.25 8.25 0 1 0 16.5 0 a8.25 8.25 0 1 0 -16.5 0z" fill="rgba(246, 240, 30, 1)"></path><path d="M247.5 148.5L247.5 214.5" stroke-width="5.5" stroke="rgba(246, 240, 30, 1)"></path><path d="M239.25 148.5 a8.25 8.25 0 1 0 16.5 0 a8.25 8.25 0 1 0 -16.5 0zM239.25 214.5 a8.25 8.25 0 1 0 16.5 0 a8.25 8.25 0 1 0 -16.5 0z" fill="rgba(246, 240, 30, 1)"></path><path d="M445.5 115.5L346.5 16.5L49.5 16.5" stroke-width="5.5" stroke="rgba(246, 240, 30, 1)"></path><path d="M437.25 115.5 a8.25 8.25 0 1 0 16.5 0 a8.25 8.25 0 1 0 -16.5 0zM41.25 16.5 a8.25 8.25 0 1 0 16.5 0 a8.25 8.25 0 1 0 -16.5 0z" fill="rgba(246, 240, 30, 1)"></path><path d="M1237.5 115.5L1237.5 82.5L1270.5 49.5" stroke-width="5.5" stroke="rgba(246, 240, 30, 1)"></path><path d="M1229.25 115.5 a8.25 8.25 0 1 0 16.5 0 a8.25 8.25 0 1 0 -16.5 0zM1262.25 49.5 a8.25 8.25 0 1 0 16.5 0 a8.25 8.25 0 1 0 -16.5 0z" fill="rgba(246, 240, 30, 1)"></path><path d="M610.5 115.5L610.5 49.5" stroke-width="5.5" stroke="rgba(246, 240, 30, 1)"></path><path d="M602.25 115.5 a8.25 8.25 0 1 0 16.5 0 a8.25 8.25 0 1 0 -16.5 0zM602.25 49.5 a8.25 8.25 0 1 0 16.5 0 a8.25 8.25 0 1 0 -16.5 0z" fill="rgba(246, 240, 30, 1)"></path><path d="M1072.5 280.5L1105.5 313.5L1138.5 313.5" stroke-width="5.5" stroke="rgba(246, 240, 30, 1)"></path><path d="M1064.25 280.5 a8.25 8.25 0 1 0 16.5 0 a8.25 8.25 0 1 0 -16.5 0zM1130.25 313.5 a8.25 8.25 0 1 0 16.5 0 a8.25 8.25 0 1 0 -16.5 0z" fill="rgba(246, 240, 30, 1)"></path><path d="M478.5 82.5L445.5 82.5L379.5 16.5" stroke-width="5.5" stroke="rgba(246, 240, 30, 1)"></path><path d="M470.25 82.5 a8.25 8.25 0 1 0 16.5 0 a8.25 8.25 0 1 0 -16.5 0zM371.25 16.5 a8.25 8.25 0 1 0 16.5 0 a8.25 8.25 0 1 0 -16.5 0z" fill="rgba(246, 240, 30, 1)"></path><path d="M1303.5 445.5L1237.5 445.5" stroke-width="5.5" stroke="rgba(246, 240, 30, 1)"></path><path d="M1295.25 445.5 a8.25 8.25 0 1 0 16.5 0 a8.25 8.25 0 1 0 -16.5 0zM1229.25 445.5 a8.25 8.25 0 1 0 16.5 0 a8.25 8.25 0 1 0 -16.5 0z" fill="rgba(246, 240, 30, 1)"></path><path d="M577.5 148.5L577.5 82.5" stroke-width="5.5" stroke="rgba(246, 240, 30, 1)"></path><path d="M569.25 148.5 a8.25 8.25 0 1 0 16.5 0 a8.25 8.25 0 1 0 -16.5 0zM569.25 82.5 a8.25 8.25 0 1 0 16.5 0 a8.25 8.25 0 1 0 -16.5 0z" fill="rgba(246, 240, 30, 1)"></path><path d="M1072.5 379.5L1006.5 379.5" stroke-width="5.5" stroke="rgba(246, 240, 30, 1)"></path><path d="M1064.25 379.5 a8.25 8.25 0 1 0 16.5 0 a8.25 8.25 0 1 0 -16.5 0zM998.25 379.5 a8.25 8.25 0 1 0 16.5 0 a8.25 8.25 0 1 0 -16.5 0z" fill="rgba(246, 240, 30, 1)"></path><path d="M610.5 478.5L577.5 478.5L544.5 511.5" stroke-width="5.5" stroke="rgba(246, 240, 30, 1)"></path><path d="M602.25 478.5 a8.25 8.25 0 1 0 16.5 0 a8.25 8.25 0 1 0 -16.5 0zM536.25 511.5 a8.25 8.25 0 1 0 16.5 0 a8.25 8.25 0 1 0 -16.5 0z" fill="rgba(246, 240, 30, 1)"></path><path d="M1138.5 16.5L874.5 16.5" stroke-width="5.5" stroke="rgba(246, 240, 30, 1)"></path><path d="M1130.25 16.5 a8.25 8.25 0 1 0 16.5 0 a8.25 8.25 0 1 0 -16.5 0zM866.25 16.5 a8.25 8.25 0 1 0 16.5 0 a8.25 8.25 0 1 0 -16.5 0z" fill="rgba(246, 240, 30, 1)"></path><path d="M478.5 313.5L445.5 313.5L412.5 346.5" stroke-width="5.5" stroke="rgba(246, 240, 30, 1)"></path><path d="M470.25 313.5 a8.25 8.25 0 1 0 16.5 0 a8.25 8.25 0 1 0 -16.5 0zM404.25 346.5 a8.25 8.25 0 1 0 16.5 0 a8.25 8.25 0 1 0 -16.5 0z" fill="rgba(246, 240, 30, 1)"></path><path d="M16.5 412.5L82.5 412.5" stroke-width="5.5" stroke="rgba(246, 240, 30, 1)"></path><path d="M8.25 412.5 a8.25 8.25 0 1 0 16.5 0 a8.25 8.25 0 1 0 -16.5 0zM74.25 412.5 a8.25 8.25 0 1 0 16.5 0 a8.25 8.25 0 1 0 -16.5 0z" fill="rgba(246, 240, 30, 1)"></path><path d="M1270.5 247.5L1237.5 280.5L1171.5 280.5L1138.5 247.5L1138.5 214.5" stroke-width="5.5" stroke="rgba(246, 240, 30, 1)"></path><path d="M1262.25 247.5 a8.25 8.25 0 1 0 16.5 0 a8.25 8.25 0 1 0 -16.5 0zM1130.25 214.5 a8.25 8.25 0 1 0 16.5 0 a8.25 8.25 0 1 0 -16.5 0z" fill="rgba(246, 240, 30, 1)"></path><path d="M1072.5 49.5L907.5 49.5" stroke-width="5.5" stroke="rgba(246, 240, 30, 1)"></path><path d="M1064.25 49.5 a8.25 8.25 0 1 0 16.5 0 a8.25 8.25 0 1 0 -16.5 0zM899.25 49.5 a8.25 8.25 0 1 0 16.5 0 a8.25 8.25 0 1 0 -16.5 0z" fill="rgba(246, 240, 30, 1)"></path><path d="M1006.5 511.5L907.5 511.5" stroke-width="5.5" stroke="rgba(246, 240, 30, 1)"></path><path d="M998.25 511.5 a8.25 8.25 0 1 0 16.5 0 a8.25 8.25 0 1 0 -16.5 0zM899.25 511.5 a8.25 8.25 0 1 0 16.5 0 a8.25 8.25 0 1 0 -16.5 0z" fill="rgba(246, 240, 30, 1)"></path></g></g><defs><mask id="SvgjsMask1106"><rect width="1440" height="560" fill="#ffffff"></rect></mask><mask id="SvgjsMask1107"><rect width="1440" height="560" fill="white"></rect><path d="M375.37 544.5 a4.13 4.13 0 1 0 8.26 0 a4.13 4.13 0 1 0 -8.26 0zM12.37 16.5 a4.13 4.13 0 1 0 8.26 0 a4.13 4.13 0 1 0 -8.26 0z" fill="black"></path><path d="M1233.37 181.5 a4.13 4.13 0 1 0 8.26 0 a4.13 4.13 0 1 0 -8.26 0zM606.37 445.5 a4.13 4.13 0 1 0 8.26 0 a4.13 4.13 0 1 0 -8.26 0z" fill="black"></path><path d="M210.37 247.5 a4.13 4.13 0 1 0 8.26 0 a4.13 4.13 0 1 0 -8.26 0zM771.37 247.5 a4.13 4.13 0 1 0 8.26 0 a4.13 4.13 0 1 0 -8.26 0z" fill="black"></path><path d="M111.37 148.5 a4.13 4.13 0 1 0 8.26 0 a4.13 4.13 0 1 0 -8.26 0zM177.37 280.5 a4.13 4.13 0 1 0 8.26 0 a4.13 4.13 0 1 0 -8.26 0z" fill="black"></path><path d="M540.37 379.5 a4.13 4.13 0 1 0 8.26 0 a4.13 4.13 0 1 0 -8.26 0zM45.37 148.5 a4.13 4.13 0 1 0 8.26 0 a4.13 4.13 0 1 0 -8.26 0z" fill="black"></path><path d="M738.37 346.5 a4.13 4.13 0 1 0 8.26 0 a4.13 4.13 0 1 0 -8.26 0zM1365.37 412.5 a4.13 4.13 0 1 0 8.26 0 a4.13 4.13 0 1 0 -8.26 0z" fill="black"></path><path d="M738.37 82.5 a4.13 4.13 0 1 0 8.26 0 a4.13 4.13 0 1 0 -8.26 0zM474.37 148.5 a4.13 4.13 0 1 0 8.26 0 a4.13 4.13 0 1 0 -8.26 0z" fill="black"></path><path d="M309.37 181.5 a4.13 4.13 0 1 0 8.26 0 a4.13 4.13 0 1 0 -8.26 0zM507.37 247.5 a4.13 4.13 0 1 0 8.26 0 a4.13 4.13 0 1 0 -8.26 0z" fill="black"></path><path d="M672.37 478.5 a4.13 4.13 0 1 0 8.26 0 a4.13 4.13 0 1 0 -8.26 0zM1233.37 544.5 a4.13 4.13 0 1 0 8.26 0 a4.13 4.13 0 1 0 -8.26 0z" fill="black"></path><path d="M1398.37 445.5 a4.13 4.13 0 1 0 8.26 0 a4.13 4.13 0 1 0 -8.26 0zM1398.37 544.5 a4.13 4.13 0 1 0 8.26 0 a4.13 4.13 0 1 0 -8.26 0z" fill="black"></path><path d="M1200.37 115.5 a4.13 4.13 0 1 0 8.26 0 a4.13 4.13 0 1 0 -8.26 0zM573.37 247.5 a4.13 4.13 0 1 0 8.26 0 a4.13 4.13 0 1 0 -8.26 0z" fill="black"></path><path d="M45.37 445.5 a4.13 4.13 0 1 0 8.26 0 a4.13 4.13 0 1 0 -8.26 0zM243.37 412.5 a4.13 4.13 0 1 0 8.26 0 a4.13 4.13 0 1 0 -8.26 0z" fill="black"></path><path d="M177.37 412.5 a4.13 4.13 0 1 0 8.26 0 a4.13 4.13 0 1 0 -8.26 0zM12.37 214.5 a4.13 4.13 0 1 0 8.26 0 a4.13 4.13 0 1 0 -8.26 0z" fill="black"></path><path d="M441.37 16.5 a4.13 4.13 0 1 0 8.26 0 a4.13 4.13 0 1 0 -8.26 0zM507.37 82.5 a4.13 4.13 0 1 0 8.26 0 a4.13 4.13 0 1 0 -8.26 0z" fill="black"></path><path d="M276.37 445.5 a4.13 4.13 0 1 0 8.26 0 a4.13 4.13 0 1 0 -8.26 0zM12.37 544.5 a4.13 4.13 0 1 0 8.26 0 a4.13 4.13 0 1 0 -8.26 0z" fill="black"></path><path d="M639.37 313.5 a4.13 4.13 0 1 0 8.26 0 a4.13 4.13 0 1 0 -8.26 0zM837.37 181.5 a4.13 4.13 0 1 0 8.26 0 a4.13 4.13 0 1 0 -8.26 0z" fill="black"></path><path d="M1365.37 49.5 a4.13 4.13 0 1 0 8.26 0 a4.13 4.13 0 1 0 -8.26 0zM1431.37 544.5 a4.13 4.13 0 1 0 8.26 0 a4.13 4.13 0 1 0 -8.26 0z" fill="black"></path><path d="M1134.37 82.5 a4.13 4.13 0 1 0 8.26 0 a4.13 4.13 0 1 0 -8.26 0zM771.37 16.5 a4.13 4.13 0 1 0 8.26 0 a4.13 4.13 0 1 0 -8.26 0z" fill="black"></path><path d="M243.37 544.5 a4.13 4.13 0 1 0 8.26 0 a4.13 4.13 0 1 0 -8.26 0zM309.37 478.5 a4.13 4.13 0 1 0 8.26 0 a4.13 4.13 0 1 0 -8.26 0z" fill="black"></path><path d="M1332.37 280.5 a4.13 4.13 0 1 0 8.26 0 a4.13 4.13 0 1 0 -8.26 0zM1332.37 16.5 a4.13 4.13 0 1 0 8.26 0 a4.13 4.13 0 1 0 -8.26 0z" fill="black"></path><path d="M969.37 280.5 a4.13 4.13 0 1 0 8.26 0 a4.13 4.13 0 1 0 -8.26 0zM870.37 214.5 a4.13 4.13 0 1 0 8.26 0 a4.13 4.13 0 1 0 -8.26 0z" fill="black"></path><path d="M1200.37 511.5 a4.13 4.13 0 1 0 8.26 0 a4.13 4.13 0 1 0 -8.26 0zM1365.37 511.5 a4.13 4.13 0 1 0 8.26 0 a4.13 4.13 0 1 0 -8.26 0z" fill="black"></path><path d="M1167.37 445.5 a4.13 4.13 0 1 0 8.26 0 a4.13 4.13 0 1 0 -8.26 0zM1365.37 478.5 a4.13 4.13 0 1 0 8.26 0 a4.13 4.13 0 1 0 -8.26 0z" fill="black"></path><path d="M1035.37 247.5 a4.13 4.13 0 1 0 8.26 0 a4.13 4.13 0 1 0 -8.26 0zM903.37 247.5 a4.13 4.13 0 1 0 8.26 0 a4.13 4.13 0 1 0 -8.26 0z" fill="black"></path><path d="M243.37 247.5 a4.13 4.13 0 1 0 8.26 0 a4.13 4.13 0 1 0 -8.26 0zM474.37 511.5 a4.13 4.13 0 1 0 8.26 0 a4.13 4.13 0 1 0 -8.26 0z" fill="black"></path><path d="M1398.37 49.5 a4.13 4.13 0 1 0 8.26 0 a4.13 4.13 0 1 0 -8.26 0zM1431.37 412.5 a4.13 4.13 0 1 0 8.26 0 a4.13 4.13 0 1 0 -8.26 0z" fill="black"></path><path d="M177.37 181.5 a4.13 4.13 0 1 0 8.26 0 a4.13 4.13 0 1 0 -8.26 0zM474.37 214.5 a4.13 4.13 0 1 0 8.26 0 a4.13 4.13 0 1 0 -8.26 0z" fill="black"></path><path d="M804.37 478.5 a4.13 4.13 0 1 0 8.26 0 a4.13 4.13 0 1 0 -8.26 0zM507.37 544.5 a4.13 4.13 0 1 0 8.26 0 a4.13 4.13 0 1 0 -8.26 0z" fill="black"></path><path d="M1002.37 412.5 a4.13 4.13 0 1 0 8.26 0 a4.13 4.13 0 1 0 -8.26 0zM1200.37 379.5 a4.13 4.13 0 1 0 8.26 0 a4.13 4.13 0 1 0 -8.26 0z" fill="black"></path><path d="M1101.37 280.5 a4.13 4.13 0 1 0 8.26 0 a4.13 4.13 0 1 0 -8.26 0zM903.37 214.5 a4.13 4.13 0 1 0 8.26 0 a4.13 4.13 0 1 0 -8.26 0z" fill="black"></path><path d="M1299.37 478.5 a4.13 4.13 0 1 0 8.26 0 a4.13 4.13 0 1 0 -8.26 0zM771.37 379.5 a4.13 4.13 0 1 0 8.26 0 a4.13 4.13 0 1 0 -8.26 0z" fill="black"></path><path d="M144.37 313.5 a4.13 4.13 0 1 0 8.26 0 a4.13 4.13 0 1 0 -8.26 0zM210.37 412.5 a4.13 4.13 0 1 0 8.26 0 a4.13 4.13 0 1 0 -8.26 0z" fill="black"></path><path d="M12.37 445.5 a4.13 4.13 0 1 0 8.26 0 a4.13 4.13 0 1 0 -8.26 0zM210.37 478.5 a4.13 4.13 0 1 0 8.26 0 a4.13 4.13 0 1 0 -8.26 0z" fill="black"></path><path d="M903.37 379.5 a4.13 4.13 0 1 0 8.26 0 a4.13 4.13 0 1 0 -8.26 0zM903.37 445.5 a4.13 4.13 0 1 0 8.26 0 a4.13 4.13 0 1 0 -8.26 0z" fill="black"></path><path d="M738.37 544.5 a4.13 4.13 0 1 0 8.26 0 a4.13 4.13 0 1 0 -8.26 0zM870.37 544.5 a4.13 4.13 0 1 0 8.26 0 a4.13 4.13 0 1 0 -8.26 0z" fill="black"></path><path d="M1101.37 214.5 a4.13 4.13 0 1 0 8.26 0 a4.13 4.13 0 1 0 -8.26 0zM1332.37 313.5 a4.13 4.13 0 1 0 8.26 0 a4.13 4.13 0 1 0 -8.26 0z" fill="black"></path><path d="M639.37 280.5 a4.13 4.13 0 1 0 8.26 0 a4.13 4.13 0 1 0 -8.26 0zM276.37 115.5 a4.13 4.13 0 1 0 8.26 0 a4.13 4.13 0 1 0 -8.26 0z" fill="black"></path><path d="M540.37 214.5 a4.13 4.13 0 1 0 8.26 0 a4.13 4.13 0 1 0 -8.26 0zM705.37 82.5 a4.13 4.13 0 1 0 8.26 0 a4.13 4.13 0 1 0 -8.26 0z" fill="black"></path><path d="M1167.37 115.5 a4.13 4.13 0 1 0 8.26 0 a4.13 4.13 0 1 0 -8.26 0zM1266.37 16.5 a4.13 4.13 0 1 0 8.26 0 a4.13 4.13 0 1 0 -8.26 0z" fill="black"></path><path d="M837.37 16.5 a4.13 4.13 0 1 0 8.26 0 a4.13 4.13 0 1 0 -8.26 0zM804.37 82.5 a4.13 4.13 0 1 0 8.26 0 a4.13 4.13 0 1 0 -8.26 0z" fill="black"></path><path d="M606.37 247.5 a4.13 4.13 0 1 0 8.26 0 a4.13 4.13 0 1 0 -8.26 0zM771.37 148.5 a4.13 4.13 0 1 0 8.26 0 a4.13 4.13 0 1 0 -8.26 0z" fill="black"></path><path d="M969.37 445.5 a4.13 4.13 0 1 0 8.26 0 a4.13 4.13 0 1 0 -8.26 0zM969.37 379.5 a4.13 4.13 0 1 0 8.26 0 a4.13 4.13 0 1 0 -8.26 0z" fill="black"></path><path d="M573.37 181.5 a4.13 4.13 0 1 0 8.26 0 a4.13 4.13 0 1 0 -8.26 0zM672.37 49.5 a4.13 4.13 0 1 0 8.26 0 a4.13 4.13 0 1 0 -8.26 0z" fill="black"></path><path d="M1233.37 148.5 a4.13 4.13 0 1 0 8.26 0 a4.13 4.13 0 1 0 -8.26 0zM1299.37 280.5 a4.13 4.13 0 1 0 8.26 0 a4.13 4.13 0 1 0 -8.26 0z" fill="black"></path><path d="M837.37 82.5 a4.13 4.13 0 1 0 8.26 0 a4.13 4.13 0 1 0 -8.26 0zM1233.37 16.5 a4.13 4.13 0 1 0 8.26 0 a4.13 4.13 0 1 0 -8.26 0z" fill="black"></path><path d="M45.37 346.5 a4.13 4.13 0 1 0 8.26 0 a4.13 4.13 0 1 0 -8.26 0zM12.37 247.5 a4.13 4.13 0 1 0 8.26 0 a4.13 4.13 0 1 0 -8.26 0z" fill="black"></path><path d="M408.37 445.5 a4.13 4.13 0 1 0 8.26 0 a4.13 4.13 0 1 0 -8.26 0zM441.37 511.5 a4.13 4.13 0 1 0 8.26 0 a4.13 4.13 0 1 0 -8.26 0z" fill="black"></path><path d="M375.37 412.5 a4.13 4.13 0 1 0 8.26 0 a4.13 4.13 0 1 0 -8.26 0zM243.37 313.5 a4.13 4.13 0 1 0 8.26 0 a4.13 4.13 0 1 0 -8.26 0z" fill="black"></path><path d="M111.37 313.5 a4.13 4.13 0 1 0 8.26 0 a4.13 4.13 0 1 0 -8.26 0zM78.37 247.5 a4.13 4.13 0 1 0 8.26 0 a4.13 4.13 0 1 0 -8.26 0z" fill="black"></path><path d="M144.37 478.5 a4.13 4.13 0 1 0 8.26 0 a4.13 4.13 0 1 0 -8.26 0zM78.37 478.5 a4.13 4.13 0 1 0 8.26 0 a4.13 4.13 0 1 0 -8.26 0z" fill="black"></path><path d="M1002.37 313.5 a4.13 4.13 0 1 0 8.26 0 a4.13 4.13 0 1 0 -8.26 0zM771.37 313.5 a4.13 4.13 0 1 0 8.26 0 a4.13 4.13 0 1 0 -8.26 0z" fill="black"></path><path d="M507.37 280.5 a4.13 4.13 0 1 0 8.26 0 a4.13 4.13 0 1 0 -8.26 0zM309.37 214.5 a4.13 4.13 0 1 0 8.26 0 a4.13 4.13 0 1 0 -8.26 0z" fill="black"></path><path d="M1068.37 445.5 a4.13 4.13 0 1 0 8.26 0 a4.13 4.13 0 1 0 -8.26 0zM1002.37 445.5 a4.13 4.13 0 1 0 8.26 0 a4.13 4.13 0 1 0 -8.26 0z" fill="black"></path><path d="M1431.37 148.5 a4.13 4.13 0 1 0 8.26 0 a4.13 4.13 0 1 0 -8.26 0zM1431.37 16.5 a4.13 4.13 0 1 0 8.26 0 a4.13 4.13 0 1 0 -8.26 0z" fill="black"></path><path d="M705.37 181.5 a4.13 4.13 0 1 0 8.26 0 a4.13 4.13 0 1 0 -8.26 0zM672.37 280.5 a4.13 4.13 0 1 0 8.26 0 a4.13 4.13 0 1 0 -8.26 0z" fill="black"></path><path d="M1431.37 247.5 a4.13 4.13 0 1 0 8.26 0 a4.13 4.13 0 1 0 -8.26 0zM1431.37 181.5 a4.13 4.13 0 1 0 8.26 0 a4.13 4.13 0 1 0 -8.26 0z" fill="black"></path><path d="M1200.37 445.5 a4.13 4.13 0 1 0 8.26 0 a4.13 4.13 0 1 0 -8.26 0zM1332.37 478.5 a4.13 4.13 0 1 0 8.26 0 a4.13 4.13 0 1 0 -8.26 0z" fill="black"></path><path d="M144.37 247.5 a4.13 4.13 0 1 0 8.26 0 a4.13 4.13 0 1 0 -8.26 0zM78.37 181.5 a4.13 4.13 0 1 0 8.26 0 a4.13 4.13 0 1 0 -8.26 0z" fill="black"></path><path d="M243.37 148.5 a4.13 4.13 0 1 0 8.26 0 a4.13 4.13 0 1 0 -8.26 0zM243.37 214.5 a4.13 4.13 0 1 0 8.26 0 a4.13 4.13 0 1 0 -8.26 0z" fill="black"></path><path d="M441.37 115.5 a4.13 4.13 0 1 0 8.26 0 a4.13 4.13 0 1 0 -8.26 0zM45.37 16.5 a4.13 4.13 0 1 0 8.26 0 a4.13 4.13 0 1 0 -8.26 0z" fill="black"></path><path d="M1233.37 115.5 a4.13 4.13 0 1 0 8.26 0 a4.13 4.13 0 1 0 -8.26 0zM1266.37 49.5 a4.13 4.13 0 1 0 8.26 0 a4.13 4.13 0 1 0 -8.26 0z" fill="black"></path><path d="M606.37 115.5 a4.13 4.13 0 1 0 8.26 0 a4.13 4.13 0 1 0 -8.26 0zM606.37 49.5 a4.13 4.13 0 1 0 8.26 0 a4.13 4.13 0 1 0 -8.26 0z" fill="black"></path><path d="M1068.37 280.5 a4.13 4.13 0 1 0 8.26 0 a4.13 4.13 0 1 0 -8.26 0zM1134.37 313.5 a4.13 4.13 0 1 0 8.26 0 a4.13 4.13 0 1 0 -8.26 0z" fill="black"></path><path d="M474.37 82.5 a4.13 4.13 0 1 0 8.26 0 a4.13 4.13 0 1 0 -8.26 0zM375.37 16.5 a4.13 4.13 0 1 0 8.26 0 a4.13 4.13 0 1 0 -8.26 0z" fill="black"></path><path d="M1299.37 445.5 a4.13 4.13 0 1 0 8.26 0 a4.13 4.13 0 1 0 -8.26 0zM1233.37 445.5 a4.13 4.13 0 1 0 8.26 0 a4.13 4.13 0 1 0 -8.26 0z" fill="black"></path><path d="M573.37 148.5 a4.13 4.13 0 1 0 8.26 0 a4.13 4.13 0 1 0 -8.26 0zM573.37 82.5 a4.13 4.13 0 1 0 8.26 0 a4.13 4.13 0 1 0 -8.26 0z" fill="black"></path><path d="M1068.37 379.5 a4.13 4.13 0 1 0 8.26 0 a4.13 4.13 0 1 0 -8.26 0zM1002.37 379.5 a4.13 4.13 0 1 0 8.26 0 a4.13 4.13 0 1 0 -8.26 0z" fill="black"></path><path d="M606.37 478.5 a4.13 4.13 0 1 0 8.26 0 a4.13 4.13 0 1 0 -8.26 0zM540.37 511.5 a4.13 4.13 0 1 0 8.26 0 a4.13 4.13 0 1 0 -8.26 0z" fill="black"></path><path d="M1134.37 16.5 a4.13 4.13 0 1 0 8.26 0 a4.13 4.13 0 1 0 -8.26 0zM870.37 16.5 a4.13 4.13 0 1 0 8.26 0 a4.13 4.13 0 1 0 -8.26 0z" fill="black"></path><path d="M474.37 313.5 a4.13 4.13 0 1 0 8.26 0 a4.13 4.13 0 1 0 -8.26 0zM408.37 346.5 a4.13 4.13 0 1 0 8.26 0 a4.13 4.13 0 1 0 -8.26 0z" fill="black"></path><path d="M12.37 412.5 a4.13 4.13 0 1 0 8.26 0 a4.13 4.13 0 1 0 -8.26 0zM78.37 412.5 a4.13 4.13 0 1 0 8.26 0 a4.13 4.13 0 1 0 -8.26 0z" fill="black"></path><path d="M1266.37 247.5 a4.13 4.13 0 1 0 8.26 0 a4.13 4.13 0 1 0 -8.26 0zM1134.37 214.5 a4.13 4.13 0 1 0 8.26 0 a4.13 4.13 0 1 0 -8.26 0z" fill="black"></path><path d="M1068.37 49.5 a4.13 4.13 0 1 0 8.26 0 a4.13 4.13 0 1 0 -8.26 0zM903.37 49.5 a4.13 4.13 0 1 0 8.26 0 a4.13 4.13 0 1 0 -8.26 0z" fill="black"></path><path d="M1002.37 511.5 a4.13 4.13 0 1 0 8.26 0 a4.13 4.13 0 1 0 -8.26 0zM903.37 511.5 a4.13 4.13 0 1 0 8.26 0 a4.13 4.13 0 1 0 -8.26 0z" fill="black"></path></mask></defs></svg>