<svg xmlns="http://www.w3.org/2000/svg" version="1.1" xmlns:xlink="http://www.w3.org/1999/xlink" xmlns:svgjs="http://svgjs.dev/svgjs" width="1440" height="760" preserveAspectRatio="none" viewBox="0 0 1440 760"><g mask="url(&quot;#SvgjsMask1110&quot;)" fill="none"><rect width="1440" height="760" x="0" y="0" fill="rgba(102, 42, 136, 1)"></rect><g mask="url(&quot;#SvgjsMask1111&quot;)"><path d="M1270.5 16.5L1435.5 181.5L1435.5 247.5L1303.5 379.5L1303.5 412.5L1204.5 511.5L1072.5 511.5" stroke-width="5.5" stroke="rgba(246, 240, 30, 1)"></path><path d="M1262.25 16.5 a8.25 8.25 0 1 0 16.5 0 a8.25 8.25 0 1 0 -16.5 0zM1064.25 511.5 a8.25 8.25 0 1 0 16.5 0 a8.25 8.25 0 1 0 -16.5 0z" fill="rgba(246, 240, 30, 1)"></path><path d="M643.5 511.5L148.5 16.5L16.5 16.5" stroke-width="5.5" stroke="rgba(246, 240, 30, 1)"></path><path d="M635.25 511.5 a8.25 8.25 0 1 0 16.5 0 a8.25 8.25 0 1 0 -16.5 0zM8.25 16.5 a8.25 8.25 0 1 0 16.5 0 a8.25 8.25 0 1 0 -16.5 0z" fill="rgba(246, 240, 30, 1)"></path><path d="M544.5 280.5L544.5 379.5L709.5 544.5L1072.5 544.5" stroke-width="5.5" stroke="rgba(246, 240, 30, 1)"></path><path d="M536.25 280.5 a8.25 8.25 0 1 0 16.5 0 a8.25 8.25 0 1 0 -16.5 0zM1064.25 544.5 a8.25 8.25 0 1 0 16.5 0 a8.25 8.25 0 1 0 -16.5 0z" fill="rgba(246, 240, 30, 1)"></path><path d="M577.5 214.5L874.5 214.5L940.5 148.5L1204.5 148.5" stroke-width="5.5" stroke="rgba(246, 240, 30, 1)"></path><path d="M569.25 214.5 a8.25 8.25 0 1 0 16.5 0 a8.25 8.25 0 1 0 -16.5 0zM1196.25 148.5 a8.25 8.25 0 1 0 16.5 0 a8.25 8.25 0 1 0 -16.5 0z" fill="rgba(246, 240, 30, 1)"></path><path d="M445.5 445.5L445.5 346.5L247.5 148.5L181.5 148.5L148.5 181.5L148.5 412.5" stroke-width="5.5" stroke="rgba(246, 240, 30, 1)"></path><path d="M437.25 445.5 a8.25 8.25 0 1 0 16.5 0 a8.25 8.25 0 1 0 -16.5 0zM140.25 412.5 a8.25 8.25 0 1 0 16.5 0 a8.25 8.25 0 1 0 -16.5 0z" fill="rgba(246, 240, 30, 1)"></path><path d="M808.5 16.5L643.5 181.5L544.5 181.5L445.5 280.5" stroke-width="5.5" stroke="rgba(246, 240, 30, 1)"></path><path d="M800.25 16.5 a8.25 8.25 0 1 0 16.5 0 a8.25 8.25 0 1 0 -16.5 0zM437.25 280.5 a8.25 8.25 0 1 0 16.5 0 a8.25 8.25 0 1 0 -16.5 0z" fill="rgba(246, 240, 30, 1)"></path><path d="M610.5 544.5L676.5 544.5L742.5 610.5L1072.5 610.5L1138.5 544.5L1237.5 544.5" stroke-width="5.5" stroke="rgba(246, 240, 30, 1)"></path><path d="M602.25 544.5 a8.25 8.25 0 1 0 16.5 0 a8.25 8.25 0 1 0 -16.5 0zM1229.25 544.5 a8.25 8.25 0 1 0 16.5 0 a8.25 8.25 0 1 0 -16.5 0z" fill="rgba(246, 240, 30, 1)"></path><path d="M1237.5 16.5L1138.5 115.5L742.5 115.5L676.5 181.5" stroke-width="5.5" stroke="rgba(246, 240, 30, 1)"></path><path d="M1229.25 16.5 a8.25 8.25 0 1 0 16.5 0 a8.25 8.25 0 1 0 -16.5 0zM668.25 181.5 a8.25 8.25 0 1 0 16.5 0 a8.25 8.25 0 1 0 -16.5 0z" fill="rgba(246, 240, 30, 1)"></path><path d="M1402.5 16.5L1369.5 49.5L1336.5 49.5L1303.5 16.5" stroke-width="5.5" stroke="rgba(246, 240, 30, 1)"></path><path d="M1394.25 16.5 a8.25 8.25 0 1 0 16.5 0 a8.25 8.25 0 1 0 -16.5 0zM1295.25 16.5 a8.25 8.25 0 1 0 16.5 0 a8.25 8.25 0 1 0 -16.5 0z" fill="rgba(246, 240, 30, 1)"></path><path d="M907.5 346.5L907.5 511.5" stroke-width="5.5" stroke="rgba(246, 240, 30, 1)"></path><path d="M899.25 346.5 a8.25 8.25 0 1 0 16.5 0 a8.25 8.25 0 1 0 -16.5 0zM899.25 511.5 a8.25 8.25 0 1 0 16.5 0 a8.25 8.25 0 1 0 -16.5 0z" fill="rgba(246, 240, 30, 1)"></path><path d="M742.5 511.5L577.5 346.5L577.5 247.5L544.5 214.5" stroke-width="5.5" stroke="rgba(246, 240, 30, 1)"></path><path d="M734.25 511.5 a8.25 8.25 0 1 0 16.5 0 a8.25 8.25 0 1 0 -16.5 0zM536.25 214.5 a8.25 8.25 0 1 0 16.5 0 a8.25 8.25 0 1 0 -16.5 0z" fill="rgba(246, 240, 30, 1)"></path><path d="M445.5 742.5L445.5 610.5L181.5 346.5L181.5 181.5" stroke-width="5.5" stroke="rgba(246, 240, 30, 1)"></path><path d="M437.25 742.5 a8.25 8.25 0 1 0 16.5 0 a8.25 8.25 0 1 0 -16.5 0zM173.25 181.5 a8.25 8.25 0 1 0 16.5 0 a8.25 8.25 0 1 0 -16.5 0z" fill="rgba(246, 240, 30, 1)"></path><path d="M1171.5 247.5L1138.5 247.5L1072.5 181.5L940.5 181.5L874.5 247.5L610.5 247.5" stroke-width="5.5" stroke="rgba(246, 240, 30, 1)"></path><path d="M1163.25 247.5 a8.25 8.25 0 1 0 16.5 0 a8.25 8.25 0 1 0 -16.5 0zM602.25 247.5 a8.25 8.25 0 1 0 16.5 0 a8.25 8.25 0 1 0 -16.5 0z" fill="rgba(246, 240, 30, 1)"></path><path d="M709.5 412.5L808.5 511.5L874.5 511.5" stroke-width="5.5" stroke="rgba(246, 240, 30, 1)"></path><path d="M701.25 412.5 a8.25 8.25 0 1 0 16.5 0 a8.25 8.25 0 1 0 -16.5 0zM866.25 511.5 a8.25 8.25 0 1 0 16.5 0 a8.25 8.25 0 1 0 -16.5 0z" fill="rgba(246, 240, 30, 1)"></path><path d="M280.5 247.5L214.5 181.5" stroke-width="5.5" stroke="rgba(246, 240, 30, 1)"></path><path d="M272.25 247.5 a8.25 8.25 0 1 0 16.5 0 a8.25 8.25 0 1 0 -16.5 0zM206.25 181.5 a8.25 8.25 0 1 0 16.5 0 a8.25 8.25 0 1 0 -16.5 0z" fill="rgba(246, 240, 30, 1)"></path><path d="M115.5 280.5L16.5 280.5" stroke-width="5.5" stroke="rgba(246, 240, 30, 1)"></path><path d="M107.25 280.5 a8.25 8.25 0 1 0 16.5 0 a8.25 8.25 0 1 0 -16.5 0zM8.25 280.5 a8.25 8.25 0 1 0 16.5 0 a8.25 8.25 0 1 0 -16.5 0z" fill="rgba(246, 240, 30, 1)"></path><path d="M643.5 577.5L841.5 775.5L1270.5 775.5" stroke-width="5.5" stroke="rgba(246, 240, 30, 1)"></path><path d="M635.25 577.5 a8.25 8.25 0 1 0 16.5 0 a8.25 8.25 0 1 0 -16.5 0zM1262.25 775.5 a8.25 8.25 0 1 0 16.5 0 a8.25 8.25 0 1 0 -16.5 0z" fill="rgba(246, 240, 30, 1)"></path><path d="M478.5 775.5L478.5 379.5" stroke-width="5.5" stroke="rgba(246, 240, 30, 1)"></path><path d="M470.25 775.5 a8.25 8.25 0 1 0 16.5 0 a8.25 8.25 0 1 0 -16.5 0zM470.25 379.5 a8.25 8.25 0 1 0 16.5 0 a8.25 8.25 0 1 0 -16.5 0z" fill="rgba(246, 240, 30, 1)"></path><path d="M511.5 676.5L610.5 577.5" stroke-width="5.5" stroke="rgba(246, 240, 30, 1)"></path><path d="M503.25 676.5 a8.25 8.25 0 1 0 16.5 0 a8.25 8.25 0 1 0 -16.5 0zM602.25 577.5 a8.25 8.25 0 1 0 16.5 0 a8.25 8.25 0 1 0 -16.5 0z" fill="rgba(246, 240, 30, 1)"></path><path d="M1435.5 445.5L1435.5 379.5L1402.5 346.5L1369.5 346.5L1336.5 379.5L1336.5 412.5L1237.5 511.5" stroke-width="5.5" stroke="rgba(246, 240, 30, 1)"></path><path d="M1427.25 445.5 a8.25 8.25 0 1 0 16.5 0 a8.25 8.25 0 1 0 -16.5 0zM1229.25 511.5 a8.25 8.25 0 1 0 16.5 0 a8.25 8.25 0 1 0 -16.5 0z" fill="rgba(246, 240, 30, 1)"></path><path d="M1138.5 676.5L1072.5 742.5L874.5 742.5L841.5 709.5L841.5 643.5" stroke-width="5.5" stroke="rgba(246, 240, 30, 1)"></path><path d="M1130.25 676.5 a8.25 8.25 0 1 0 16.5 0 a8.25 8.25 0 1 0 -16.5 0zM833.25 643.5 a8.25 8.25 0 1 0 16.5 0 a8.25 8.25 0 1 0 -16.5 0z" fill="rgba(246, 240, 30, 1)"></path><path d="M511.5 412.5L511.5 643.5" stroke-width="5.5" stroke="rgba(246, 240, 30, 1)"></path><path d="M503.25 412.5 a8.25 8.25 0 1 0 16.5 0 a8.25 8.25 0 1 0 -16.5 0zM503.25 643.5 a8.25 8.25 0 1 0 16.5 0 a8.25 8.25 0 1 0 -16.5 0z" fill="rgba(246, 240, 30, 1)"></path><path d="M1171.5 643.5L1138.5 610.5L1105.5 610.5L1006.5 709.5L874.5 709.5" stroke-width="5.5" stroke="rgba(246, 240, 30, 1)"></path><path d="M1163.25 643.5 a8.25 8.25 0 1 0 16.5 0 a8.25 8.25 0 1 0 -16.5 0zM866.25 709.5 a8.25 8.25 0 1 0 16.5 0 a8.25 8.25 0 1 0 -16.5 0z" fill="rgba(246, 240, 30, 1)"></path><path d="M1402.5 742.5L1402.5 379.5" stroke-width="5.5" stroke="rgba(246, 240, 30, 1)"></path><path d="M1394.25 742.5 a8.25 8.25 0 1 0 16.5 0 a8.25 8.25 0 1 0 -16.5 0zM1394.25 379.5 a8.25 8.25 0 1 0 16.5 0 a8.25 8.25 0 1 0 -16.5 0z" fill="rgba(246, 240, 30, 1)"></path><path d="M16.5 577.5L214.5 775.5L313.5 775.5L412.5 676.5L412.5 610.5L247.5 445.5" stroke-width="5.5" stroke="rgba(246, 240, 30, 1)"></path><path d="M8.25 577.5 a8.25 8.25 0 1 0 16.5 0 a8.25 8.25 0 1 0 -16.5 0zM239.25 445.5 a8.25 8.25 0 1 0 16.5 0 a8.25 8.25 0 1 0 -16.5 0z" fill="rgba(246, 240, 30, 1)"></path><path d="M544.5 82.5L544.5 148.5L445.5 247.5L412.5 247.5L181.5 16.5" stroke-width="5.5" stroke="rgba(246, 240, 30, 1)"></path><path d="M536.25 82.5 a8.25 8.25 0 1 0 16.5 0 a8.25 8.25 0 1 0 -16.5 0zM173.25 16.5 a8.25 8.25 0 1 0 16.5 0 a8.25 8.25 0 1 0 -16.5 0z" fill="rgba(246, 240, 30, 1)"></path><path d="M445.5 544.5L445.5 478.5L379.5 412.5L346.5 412.5L313.5 445.5" stroke-width="5.5" stroke="rgba(246, 240, 30, 1)"></path><path d="M437.25 544.5 a8.25 8.25 0 1 0 16.5 0 a8.25 8.25 0 1 0 -16.5 0zM305.25 445.5 a8.25 8.25 0 1 0 16.5 0 a8.25 8.25 0 1 0 -16.5 0z" fill="rgba(246, 240, 30, 1)"></path><path d="M1237.5 280.5L1237.5 49.5" stroke-width="5.5" stroke="rgba(246, 240, 30, 1)"></path><path d="M1229.25 280.5 a8.25 8.25 0 1 0 16.5 0 a8.25 8.25 0 1 0 -16.5 0zM1229.25 49.5 a8.25 8.25 0 1 0 16.5 0 a8.25 8.25 0 1 0 -16.5 0z" fill="rgba(246, 240, 30, 1)"></path><path d="M247.5 544.5L214.5 577.5L214.5 643.5L181.5 676.5L148.5 676.5L16.5 544.5L16.5 478.5L115.5 379.5L115.5 313.5" stroke-width="5.5" stroke="rgba(246, 240, 30, 1)"></path><path d="M239.25 544.5 a8.25 8.25 0 1 0 16.5 0 a8.25 8.25 0 1 0 -16.5 0zM107.25 313.5 a8.25 8.25 0 1 0 16.5 0 a8.25 8.25 0 1 0 -16.5 0z" fill="rgba(246, 240, 30, 1)"></path><path d="M1138.5 379.5L1204.5 313.5L1204.5 181.5" stroke-width="5.5" stroke="rgba(246, 240, 30, 1)"></path><path d="M1130.25 379.5 a8.25 8.25 0 1 0 16.5 0 a8.25 8.25 0 1 0 -16.5 0zM1196.25 181.5 a8.25 8.25 0 1 0 16.5 0 a8.25 8.25 0 1 0 -16.5 0z" fill="rgba(246, 240, 30, 1)"></path><path d="M16.5 643.5L16.5 775.5" stroke-width="5.5" stroke="rgba(246, 240, 30, 1)"></path><path d="M8.25 643.5 a8.25 8.25 0 1 0 16.5 0 a8.25 8.25 0 1 0 -16.5 0zM8.25 775.5 a8.25 8.25 0 1 0 16.5 0 a8.25 8.25 0 1 0 -16.5 0z" fill="rgba(246, 240, 30, 1)"></path><path d="M610.5 49.5L610.5 82.5L643.5 115.5L676.5 115.5L775.5 16.5" stroke-width="5.5" stroke="rgba(246, 240, 30, 1)"></path><path d="M602.25 49.5 a8.25 8.25 0 1 0 16.5 0 a8.25 8.25 0 1 0 -16.5 0zM767.25 16.5 a8.25 8.25 0 1 0 16.5 0 a8.25 8.25 0 1 0 -16.5 0z" fill="rgba(246, 240, 30, 1)"></path><path d="M1369.5 544.5L1369.5 577.5L1204.5 742.5L1171.5 742.5L1138.5 709.5" stroke-width="5.5" stroke="rgba(246, 240, 30, 1)"></path><path d="M1361.25 544.5 a8.25 8.25 0 1 0 16.5 0 a8.25 8.25 0 1 0 -16.5 0zM1130.25 709.5 a8.25 8.25 0 1 0 16.5 0 a8.25 8.25 0 1 0 -16.5 0z" fill="rgba(246, 240, 30, 1)"></path><path d="M1336.5 478.5L1303.5 478.5L1270.5 511.5L1270.5 577.5L1171.5 676.5L1171.5 709.5" stroke-width="5.5" stroke="rgba(246, 240, 30, 1)"></path><path d="M1328.25 478.5 a8.25 8.25 0 1 0 16.5 0 a8.25 8.25 0 1 0 -16.5 0zM1163.25 709.5 a8.25 8.25 0 1 0 16.5 0 a8.25 8.25 0 1 0 -16.5 0z" fill="rgba(246, 240, 30, 1)"></path><path d="M610.5 742.5L544.5 676.5" stroke-width="5.5" stroke="rgba(246, 240, 30, 1)"></path><path d="M602.25 742.5 a8.25 8.25 0 1 0 16.5 0 a8.25 8.25 0 1 0 -16.5 0zM536.25 676.5 a8.25 8.25 0 1 0 16.5 0 a8.25 8.25 0 1 0 -16.5 0z" fill="rgba(246, 240, 30, 1)"></path><path d="M1369.5 148.5L1402.5 181.5L1402.5 247.5L1171.5 478.5L940.5 478.5" stroke-width="5.5" stroke="rgba(246, 240, 30, 1)"></path><path d="M1361.25 148.5 a8.25 8.25 0 1 0 16.5 0 a8.25 8.25 0 1 0 -16.5 0zM932.25 478.5 a8.25 8.25 0 1 0 16.5 0 a8.25 8.25 0 1 0 -16.5 0z" fill="rgba(246, 240, 30, 1)"></path><path d="M1237.5 742.5L1336.5 643.5L1369.5 643.5" stroke-width="5.5" stroke="rgba(246, 240, 30, 1)"></path><path d="M1229.25 742.5 a8.25 8.25 0 1 0 16.5 0 a8.25 8.25 0 1 0 -16.5 0zM1361.25 643.5 a8.25 8.25 0 1 0 16.5 0 a8.25 8.25 0 1 0 -16.5 0z" fill="rgba(246, 240, 30, 1)"></path><path d="M841.5 379.5L775.5 445.5" stroke-width="5.5" stroke="rgba(246, 240, 30, 1)"></path><path d="M833.25 379.5 a8.25 8.25 0 1 0 16.5 0 a8.25 8.25 0 1 0 -16.5 0zM767.25 445.5 a8.25 8.25 0 1 0 16.5 0 a8.25 8.25 0 1 0 -16.5 0z" fill="rgba(246, 240, 30, 1)"></path><path d="M973.5 346.5L907.5 280.5L907.5 247.5L940.5 214.5L1072.5 214.5L1171.5 313.5" stroke-width="5.5" stroke="rgba(246, 240, 30, 1)"></path><path d="M965.25 346.5 a8.25 8.25 0 1 0 16.5 0 a8.25 8.25 0 1 0 -16.5 0zM1163.25 313.5 a8.25 8.25 0 1 0 16.5 0 a8.25 8.25 0 1 0 -16.5 0z" fill="rgba(246, 240, 30, 1)"></path><path d="M775.5 148.5L742.5 148.5L709.5 181.5" stroke-width="5.5" stroke="rgba(246, 240, 30, 1)"></path><path d="M767.25 148.5 a8.25 8.25 0 1 0 16.5 0 a8.25 8.25 0 1 0 -16.5 0zM701.25 181.5 a8.25 8.25 0 1 0 16.5 0 a8.25 8.25 0 1 0 -16.5 0z" fill="rgba(246, 240, 30, 1)"></path><path d="M445.5 214.5L412.5 214.5L214.5 16.5" stroke-width="5.5" stroke="rgba(246, 240, 30, 1)"></path><path d="M437.25 214.5 a8.25 8.25 0 1 0 16.5 0 a8.25 8.25 0 1 0 -16.5 0zM206.25 16.5 a8.25 8.25 0 1 0 16.5 0 a8.25 8.25 0 1 0 -16.5 0z" fill="rgba(246, 240, 30, 1)"></path><path d="M346.5 16.5L478.5 148.5L478.5 181.5" stroke-width="5.5" stroke="rgba(246, 240, 30, 1)"></path><path d="M338.25 16.5 a8.25 8.25 0 1 0 16.5 0 a8.25 8.25 0 1 0 -16.5 0zM470.25 181.5 a8.25 8.25 0 1 0 16.5 0 a8.25 8.25 0 1 0 -16.5 0z" fill="rgba(246, 240, 30, 1)"></path><path d="M1336.5 214.5L1336.5 280.5L1204.5 412.5L1072.5 412.5L1039.5 445.5L940.5 445.5" stroke-width="5.5" stroke="rgba(246, 240, 30, 1)"></path><path d="M1328.25 214.5 a8.25 8.25 0 1 0 16.5 0 a8.25 8.25 0 1 0 -16.5 0zM932.25 445.5 a8.25 8.25 0 1 0 16.5 0 a8.25 8.25 0 1 0 -16.5 0z" fill="rgba(246, 240, 30, 1)"></path><path d="M610.5 676.5L610.5 610.5" stroke-width="5.5" stroke="rgba(246, 240, 30, 1)"></path><path d="M602.25 676.5 a8.25 8.25 0 1 0 16.5 0 a8.25 8.25 0 1 0 -16.5 0zM602.25 610.5 a8.25 8.25 0 1 0 16.5 0 a8.25 8.25 0 1 0 -16.5 0z" fill="rgba(246, 240, 30, 1)"></path><path d="M1303.5 181.5L1303.5 280.5L1204.5 379.5L1171.5 379.5" stroke-width="5.5" stroke="rgba(246, 240, 30, 1)"></path><path d="M1295.25 181.5 a8.25 8.25 0 1 0 16.5 0 a8.25 8.25 0 1 0 -16.5 0zM1163.25 379.5 a8.25 8.25 0 1 0 16.5 0 a8.25 8.25 0 1 0 -16.5 0z" fill="rgba(246, 240, 30, 1)"></path><path d="M313.5 643.5L346.5 610.5L379.5 610.5" stroke-width="5.5" stroke="rgba(246, 240, 30, 1)"></path><path d="M305.25 643.5 a8.25 8.25 0 1 0 16.5 0 a8.25 8.25 0 1 0 -16.5 0zM371.25 610.5 a8.25 8.25 0 1 0 16.5 0 a8.25 8.25 0 1 0 -16.5 0z" fill="rgba(246, 240, 30, 1)"></path><path d="M148.5 49.5L148.5 148.5L49.5 247.5L16.5 247.5" stroke-width="5.5" stroke="rgba(246, 240, 30, 1)"></path><path d="M140.25 49.5 a8.25 8.25 0 1 0 16.5 0 a8.25 8.25 0 1 0 -16.5 0zM8.25 247.5 a8.25 8.25 0 1 0 16.5 0 a8.25 8.25 0 1 0 -16.5 0z" fill="rgba(246, 240, 30, 1)"></path><path d="M1006.5 412.5L1039.5 412.5L1138.5 313.5" stroke-width="5.5" stroke="rgba(246, 240, 30, 1)"></path><path d="M998.25 412.5 a8.25 8.25 0 1 0 16.5 0 a8.25 8.25 0 1 0 -16.5 0zM1130.25 313.5 a8.25 8.25 0 1 0 16.5 0 a8.25 8.25 0 1 0 -16.5 0z" fill="rgba(246, 240, 30, 1)"></path><path d="M907.5 676.5L940.5 643.5L973.5 643.5L1006.5 676.5" stroke-width="5.5" stroke="rgba(246, 240, 30, 1)"></path><path d="M899.25 676.5 a8.25 8.25 0 1 0 16.5 0 a8.25 8.25 0 1 0 -16.5 0zM998.25 676.5 a8.25 8.25 0 1 0 16.5 0 a8.25 8.25 0 1 0 -16.5 0z" fill="rgba(246, 240, 30, 1)"></path><path d="M1336.5 181.5L1270.5 115.5L1270.5 49.5" stroke-width="5.5" stroke="rgba(246, 240, 30, 1)"></path><path d="M1328.25 181.5 a8.25 8.25 0 1 0 16.5 0 a8.25 8.25 0 1 0 -16.5 0zM1262.25 49.5 a8.25 8.25 0 1 0 16.5 0 a8.25 8.25 0 1 0 -16.5 0z" fill="rgba(246, 240, 30, 1)"></path><path d="M1369.5 82.5L1435.5 148.5" stroke-width="5.5" stroke="rgba(246, 240, 30, 1)"></path><path d="M1361.25 82.5 a8.25 8.25 0 1 0 16.5 0 a8.25 8.25 0 1 0 -16.5 0zM1427.25 148.5 a8.25 8.25 0 1 0 16.5 0 a8.25 8.25 0 1 0 -16.5 0z" fill="rgba(246, 240, 30, 1)"></path><path d="M313.5 346.5L313.5 247.5" stroke-width="5.5" stroke="rgba(246, 240, 30, 1)"></path><path d="M305.25 346.5 a8.25 8.25 0 1 0 16.5 0 a8.25 8.25 0 1 0 -16.5 0zM305.25 247.5 a8.25 8.25 0 1 0 16.5 0 a8.25 8.25 0 1 0 -16.5 0z" fill="rgba(246, 240, 30, 1)"></path><path d="M280.5 412.5L280.5 280.5L214.5 214.5" stroke-width="5.5" stroke="rgba(246, 240, 30, 1)"></path><path d="M272.25 412.5 a8.25 8.25 0 1 0 16.5 0 a8.25 8.25 0 1 0 -16.5 0zM206.25 214.5 a8.25 8.25 0 1 0 16.5 0 a8.25 8.25 0 1 0 -16.5 0z" fill="rgba(246, 240, 30, 1)"></path><path d="M379.5 511.5L379.5 445.5" stroke-width="5.5" stroke="rgba(246, 240, 30, 1)"></path><path d="M371.25 511.5 a8.25 8.25 0 1 0 16.5 0 a8.25 8.25 0 1 0 -16.5 0zM371.25 445.5 a8.25 8.25 0 1 0 16.5 0 a8.25 8.25 0 1 0 -16.5 0z" fill="rgba(246, 240, 30, 1)"></path><path d="M808.5 313.5L808.5 379.5L775.5 412.5L742.5 412.5L676.5 346.5L676.5 313.5L643.5 280.5L610.5 280.5" stroke-width="5.5" stroke="rgba(246, 240, 30, 1)"></path><path d="M800.25 313.5 a8.25 8.25 0 1 0 16.5 0 a8.25 8.25 0 1 0 -16.5 0zM602.25 280.5 a8.25 8.25 0 1 0 16.5 0 a8.25 8.25 0 1 0 -16.5 0z" fill="rgba(246, 240, 30, 1)"></path><path d="M115.5 511.5L214.5 412.5" stroke-width="5.5" stroke="rgba(246, 240, 30, 1)"></path><path d="M107.25 511.5 a8.25 8.25 0 1 0 16.5 0 a8.25 8.25 0 1 0 -16.5 0zM206.25 412.5 a8.25 8.25 0 1 0 16.5 0 a8.25 8.25 0 1 0 -16.5 0z" fill="rgba(246, 240, 30, 1)"></path><path d="M313.5 610.5L247.5 610.5" stroke-width="5.5" stroke="rgba(246, 240, 30, 1)"></path><path d="M305.25 610.5 a8.25 8.25 0 1 0 16.5 0 a8.25 8.25 0 1 0 -16.5 0zM239.25 610.5 a8.25 8.25 0 1 0 16.5 0 a8.25 8.25 0 1 0 -16.5 0z" fill="rgba(246, 240, 30, 1)"></path><path d="M544.5 445.5L544.5 610.5" stroke-width="5.5" stroke="rgba(246, 240, 30, 1)"></path><path d="M536.25 445.5 a8.25 8.25 0 1 0 16.5 0 a8.25 8.25 0 1 0 -16.5 0zM536.25 610.5 a8.25 8.25 0 1 0 16.5 0 a8.25 8.25 0 1 0 -16.5 0z" fill="rgba(246, 240, 30, 1)"></path><path d="M346.5 346.5L313.5 379.5L313.5 412.5" stroke-width="5.5" stroke="rgba(246, 240, 30, 1)"></path><path d="M338.25 346.5 a8.25 8.25 0 1 0 16.5 0 a8.25 8.25 0 1 0 -16.5 0zM305.25 412.5 a8.25 8.25 0 1 0 16.5 0 a8.25 8.25 0 1 0 -16.5 0z" fill="rgba(246, 240, 30, 1)"></path><path d="M577.5 82.5L511.5 16.5L379.5 16.5" stroke-width="5.5" stroke="rgba(246, 240, 30, 1)"></path><path d="M569.25 82.5 a8.25 8.25 0 1 0 16.5 0 a8.25 8.25 0 1 0 -16.5 0zM371.25 16.5 a8.25 8.25 0 1 0 16.5 0 a8.25 8.25 0 1 0 -16.5 0z" fill="rgba(246, 240, 30, 1)"></path><path d="M610.5 313.5L676.5 379.5L676.5 412.5" stroke-width="5.5" stroke="rgba(246, 240, 30, 1)"></path><path d="M602.25 313.5 a8.25 8.25 0 1 0 16.5 0 a8.25 8.25 0 1 0 -16.5 0zM668.25 412.5 a8.25 8.25 0 1 0 16.5 0 a8.25 8.25 0 1 0 -16.5 0z" fill="rgba(246, 240, 30, 1)"></path><path d="M16.5 214.5L115.5 115.5L115.5 49.5" stroke-width="5.5" stroke="rgba(246, 240, 30, 1)"></path><path d="M8.25 214.5 a8.25 8.25 0 1 0 16.5 0 a8.25 8.25 0 1 0 -16.5 0zM107.25 49.5 a8.25 8.25 0 1 0 16.5 0 a8.25 8.25 0 1 0 -16.5 0z" fill="rgba(246, 240, 30, 1)"></path><path d="M82.5 511.5L181.5 610.5L181.5 643.5" stroke-width="5.5" stroke="rgba(246, 240, 30, 1)"></path><path d="M74.25 511.5 a8.25 8.25 0 1 0 16.5 0 a8.25 8.25 0 1 0 -16.5 0zM173.25 643.5 a8.25 8.25 0 1 0 16.5 0 a8.25 8.25 0 1 0 -16.5 0z" fill="rgba(246, 240, 30, 1)"></path><path d="M1270.5 643.5L1270.5 610.5L1369.5 511.5L1369.5 379.5" stroke-width="5.5" stroke="rgba(246, 240, 30, 1)"></path><path d="M1262.25 643.5 a8.25 8.25 0 1 0 16.5 0 a8.25 8.25 0 1 0 -16.5 0zM1361.25 379.5 a8.25 8.25 0 1 0 16.5 0 a8.25 8.25 0 1 0 -16.5 0z" fill="rgba(246, 240, 30, 1)"></path><path d="M643.5 49.5L610.5 16.5L544.5 16.5" stroke-width="5.5" stroke="rgba(246, 240, 30, 1)"></path><path d="M635.25 49.5 a8.25 8.25 0 1 0 16.5 0 a8.25 8.25 0 1 0 -16.5 0zM536.25 16.5 a8.25 8.25 0 1 0 16.5 0 a8.25 8.25 0 1 0 -16.5 0z" fill="rgba(246, 240, 30, 1)"></path><path d="M973.5 16.5L1039.5 82.5L1138.5 82.5L1204.5 16.5" stroke-width="5.5" stroke="rgba(246, 240, 30, 1)"></path><path d="M965.25 16.5 a8.25 8.25 0 1 0 16.5 0 a8.25 8.25 0 1 0 -16.5 0zM1196.25 16.5 a8.25 8.25 0 1 0 16.5 0 a8.25 8.25 0 1 0 -16.5 0z" fill="rgba(246, 240, 30, 1)"></path><path d="M280.5 643.5L280.5 742.5" stroke-width="5.5" stroke="rgba(246, 240, 30, 1)"></path><path d="M272.25 643.5 a8.25 8.25 0 1 0 16.5 0 a8.25 8.25 0 1 0 -16.5 0zM272.25 742.5 a8.25 8.25 0 1 0 16.5 0 a8.25 8.25 0 1 0 -16.5 0z" fill="rgba(246, 240, 30, 1)"></path><path d="M1369.5 676.5L1303.5 742.5L1303.5 775.5" stroke-width="5.5" stroke="rgba(246, 240, 30, 1)"></path><path d="M1361.25 676.5 a8.25 8.25 0 1 0 16.5 0 a8.25 8.25 0 1 0 -16.5 0zM1295.25 775.5 a8.25 8.25 0 1 0 16.5 0 a8.25 8.25 0 1 0 -16.5 0z" fill="rgba(246, 240, 30, 1)"></path><path d="M1072.5 346.5L1039.5 379.5L940.5 379.5" stroke-width="5.5" stroke="rgba(246, 240, 30, 1)"></path><path d="M1064.25 346.5 a8.25 8.25 0 1 0 16.5 0 a8.25 8.25 0 1 0 -16.5 0zM932.25 379.5 a8.25 8.25 0 1 0 16.5 0 a8.25 8.25 0 1 0 -16.5 0z" fill="rgba(246, 240, 30, 1)"></path><path d="M49.5 544.5L82.5 544.5L148.5 610.5L148.5 643.5" stroke-width="5.5" stroke="rgba(246, 240, 30, 1)"></path><path d="M41.25 544.5 a8.25 8.25 0 1 0 16.5 0 a8.25 8.25 0 1 0 -16.5 0zM140.25 643.5 a8.25 8.25 0 1 0 16.5 0 a8.25 8.25 0 1 0 -16.5 0z" fill="rgba(246, 240, 30, 1)"></path><path d="M49.5 511.5L115.5 445.5L115.5 412.5" stroke-width="5.5" stroke="rgba(246, 240, 30, 1)"></path><path d="M41.25 511.5 a8.25 8.25 0 1 0 16.5 0 a8.25 8.25 0 1 0 -16.5 0zM107.25 412.5 a8.25 8.25 0 1 0 16.5 0 a8.25 8.25 0 1 0 -16.5 0z" fill="rgba(246, 240, 30, 1)"></path><path d="M907.5 577.5L1039.5 577.5" stroke-width="5.5" stroke="rgba(246, 240, 30, 1)"></path><path d="M899.25 577.5 a8.25 8.25 0 1 0 16.5 0 a8.25 8.25 0 1 0 -16.5 0zM1031.25 577.5 a8.25 8.25 0 1 0 16.5 0 a8.25 8.25 0 1 0 -16.5 0z" fill="rgba(246, 240, 30, 1)"></path><path d="M577.5 742.5L544.5 775.5L511.5 775.5" stroke-width="5.5" stroke="rgba(246, 240, 30, 1)"></path><path d="M569.25 742.5 a8.25 8.25 0 1 0 16.5 0 a8.25 8.25 0 1 0 -16.5 0zM503.25 775.5 a8.25 8.25 0 1 0 16.5 0 a8.25 8.25 0 1 0 -16.5 0z" fill="rgba(246, 240, 30, 1)"></path><path d="M841.5 313.5L808.5 280.5L742.5 280.5L709.5 313.5L709.5 346.5L742.5 379.5L775.5 379.5" stroke-width="5.5" stroke="rgba(246, 240, 30, 1)"></path><path d="M833.25 313.5 a8.25 8.25 0 1 0 16.5 0 a8.25 8.25 0 1 0 -16.5 0zM767.25 379.5 a8.25 8.25 0 1 0 16.5 0 a8.25 8.25 0 1 0 -16.5 0z" fill="rgba(246, 240, 30, 1)"></path><path d="M775.5 577.5L874.5 577.5" stroke-width="5.5" stroke="rgba(246, 240, 30, 1)"></path><path d="M767.25 577.5 a8.25 8.25 0 1 0 16.5 0 a8.25 8.25 0 1 0 -16.5 0zM866.25 577.5 a8.25 8.25 0 1 0 16.5 0 a8.25 8.25 0 1 0 -16.5 0z" fill="rgba(246, 240, 30, 1)"></path><path d="M1171.5 16.5L1138.5 49.5L1039.5 49.5L1006.5 16.5" stroke-width="5.5" stroke="rgba(246, 240, 30, 1)"></path><path d="M1163.25 16.5 a8.25 8.25 0 1 0 16.5 0 a8.25 8.25 0 1 0 -16.5 0zM998.25 16.5 a8.25 8.25 0 1 0 16.5 0 a8.25 8.25 0 1 0 -16.5 0z" fill="rgba(246, 240, 30, 1)"></path><path d="M676.5 742.5L643.5 742.5L610.5 775.5L577.5 775.5" stroke-width="5.5" stroke="rgba(246, 240, 30, 1)"></path><path d="M668.25 742.5 a8.25 8.25 0 1 0 16.5 0 a8.25 8.25 0 1 0 -16.5 0zM569.25 775.5 a8.25 8.25 0 1 0 16.5 0 a8.25 8.25 0 1 0 -16.5 0z" fill="rgba(246, 240, 30, 1)"></path><path d="M49.5 115.5L49.5 82.5L82.5 49.5" stroke-width="5.5" stroke="rgba(246, 240, 30, 1)"></path><path d="M41.25 115.5 a8.25 8.25 0 1 0 16.5 0 a8.25 8.25 0 1 0 -16.5 0zM74.25 49.5 a8.25 8.25 0 1 0 16.5 0 a8.25 8.25 0 1 0 -16.5 0z" fill="rgba(246, 240, 30, 1)"></path><path d="M181.5 544.5L247.5 478.5" stroke-width="5.5" stroke="rgba(246, 240, 30, 1)"></path><path d="M173.25 544.5 a8.25 8.25 0 1 0 16.5 0 a8.25 8.25 0 1 0 -16.5 0zM239.25 478.5 a8.25 8.25 0 1 0 16.5 0 a8.25 8.25 0 1 0 -16.5 0z" fill="rgba(246, 240, 30, 1)"></path><path d="M907.5 148.5L808.5 148.5L775.5 181.5L742.5 181.5" stroke-width="5.5" stroke="rgba(246, 240, 30, 1)"></path><path d="M899.25 148.5 a8.25 8.25 0 1 0 16.5 0 a8.25 8.25 0 1 0 -16.5 0zM734.25 181.5 a8.25 8.25 0 1 0 16.5 0 a8.25 8.25 0 1 0 -16.5 0z" fill="rgba(246, 240, 30, 1)"></path><path d="M82.5 775.5L115.5 742.5L115.5 709.5" stroke-width="5.5" stroke="rgba(246, 240, 30, 1)"></path><path d="M74.25 775.5 a8.25 8.25 0 1 0 16.5 0 a8.25 8.25 0 1 0 -16.5 0zM107.25 709.5 a8.25 8.25 0 1 0 16.5 0 a8.25 8.25 0 1 0 -16.5 0z" fill="rgba(246, 240, 30, 1)"></path><path d="M16.5 346.5L49.5 346.5L82.5 379.5" stroke-width="5.5" stroke="rgba(246, 240, 30, 1)"></path><path d="M8.25 346.5 a8.25 8.25 0 1 0 16.5 0 a8.25 8.25 0 1 0 -16.5 0zM74.25 379.5 a8.25 8.25 0 1 0 16.5 0 a8.25 8.25 0 1 0 -16.5 0z" fill="rgba(246, 240, 30, 1)"></path><path d="M643.5 643.5L742.5 742.5L742.5 775.5" stroke-width="5.5" stroke="rgba(246, 240, 30, 1)"></path><path d="M635.25 643.5 a8.25 8.25 0 1 0 16.5 0 a8.25 8.25 0 1 0 -16.5 0zM734.25 775.5 a8.25 8.25 0 1 0 16.5 0 a8.25 8.25 0 1 0 -16.5 0z" fill="rgba(246, 240, 30, 1)"></path><path d="M808.5 181.5L874.5 181.5" stroke-width="5.5" stroke="rgba(246, 240, 30, 1)"></path><path d="M800.25 181.5 a8.25 8.25 0 1 0 16.5 0 a8.25 8.25 0 1 0 -16.5 0zM866.25 181.5 a8.25 8.25 0 1 0 16.5 0 a8.25 8.25 0 1 0 -16.5 0z" fill="rgba(246, 240, 30, 1)"></path><path d="M1171.5 445.5L1072.5 445.5" stroke-width="5.5" stroke="rgba(246, 240, 30, 1)"></path><path d="M1163.25 445.5 a8.25 8.25 0 1 0 16.5 0 a8.25 8.25 0 1 0 -16.5 0zM1064.25 445.5 a8.25 8.25 0 1 0 16.5 0 a8.25 8.25 0 1 0 -16.5 0z" fill="rgba(246, 240, 30, 1)"></path><path d="M478.5 82.5L445.5 82.5L412.5 49.5" stroke-width="5.5" stroke="rgba(246, 240, 30, 1)"></path><path d="M470.25 82.5 a8.25 8.25 0 1 0 16.5 0 a8.25 8.25 0 1 0 -16.5 0zM404.25 49.5 a8.25 8.25 0 1 0 16.5 0 a8.25 8.25 0 1 0 -16.5 0z" fill="rgba(246, 240, 30, 1)"></path><path d="M610.5 709.5L676.5 709.5" stroke-width="5.5" stroke="rgba(246, 240, 30, 1)"></path><path d="M602.25 709.5 a8.25 8.25 0 1 0 16.5 0 a8.25 8.25 0 1 0 -16.5 0zM668.25 709.5 a8.25 8.25 0 1 0 16.5 0 a8.25 8.25 0 1 0 -16.5 0z" fill="rgba(246, 240, 30, 1)"></path><path d="M412.5 379.5L412.5 346.5L346.5 280.5" stroke-width="5.5" stroke="rgba(246, 240, 30, 1)"></path><path d="M404.25 379.5 a8.25 8.25 0 1 0 16.5 0 a8.25 8.25 0 1 0 -16.5 0zM338.25 280.5 a8.25 8.25 0 1 0 16.5 0 a8.25 8.25 0 1 0 -16.5 0z" fill="rgba(246, 240, 30, 1)"></path><path d="M1270.5 181.5L1270.5 247.5" stroke-width="5.5" stroke="rgba(246, 240, 30, 1)"></path><path d="M1262.25 181.5 a8.25 8.25 0 1 0 16.5 0 a8.25 8.25 0 1 0 -16.5 0zM1262.25 247.5 a8.25 8.25 0 1 0 16.5 0 a8.25 8.25 0 1 0 -16.5 0z" fill="rgba(246, 240, 30, 1)"></path><path d="M346.5 115.5L412.5 181.5L445.5 181.5" stroke-width="5.5" stroke="rgba(246, 240, 30, 1)"></path><path d="M338.25 115.5 a8.25 8.25 0 1 0 16.5 0 a8.25 8.25 0 1 0 -16.5 0zM437.25 181.5 a8.25 8.25 0 1 0 16.5 0 a8.25 8.25 0 1 0 -16.5 0z" fill="rgba(246, 240, 30, 1)"></path><path d="M940.5 280.5L1006.5 280.5" stroke-width="5.5" stroke="rgba(246, 240, 30, 1)"></path><path d="M932.25 280.5 a8.25 8.25 0 1 0 16.5 0 a8.25 8.25 0 1 0 -16.5 0zM998.25 280.5 a8.25 8.25 0 1 0 16.5 0 a8.25 8.25 0 1 0 -16.5 0z" fill="rgba(246, 240, 30, 1)"></path><path d="M709.5 775.5L643.5 775.5" stroke-width="5.5" stroke="rgba(246, 240, 30, 1)"></path><path d="M701.25 775.5 a8.25 8.25 0 1 0 16.5 0 a8.25 8.25 0 1 0 -16.5 0zM635.25 775.5 a8.25 8.25 0 1 0 16.5 0 a8.25 8.25 0 1 0 -16.5 0z" fill="rgba(246, 240, 30, 1)"></path><path d="M379.5 115.5L412.5 115.5L445.5 148.5" stroke-width="5.5" stroke="rgba(246, 240, 30, 1)"></path><path d="M371.25 115.5 a8.25 8.25 0 1 0 16.5 0 a8.25 8.25 0 1 0 -16.5 0zM437.25 148.5 a8.25 8.25 0 1 0 16.5 0 a8.25 8.25 0 1 0 -16.5 0z" fill="rgba(246, 240, 30, 1)"></path><path d="M148.5 511.5L214.5 445.5" stroke-width="5.5" stroke="rgba(246, 240, 30, 1)"></path><path d="M140.25 511.5 a8.25 8.25 0 1 0 16.5 0 a8.25 8.25 0 1 0 -16.5 0zM206.25 445.5 a8.25 8.25 0 1 0 16.5 0 a8.25 8.25 0 1 0 -16.5 0z" fill="rgba(246, 240, 30, 1)"></path><path d="M874.5 49.5L841.5 82.5L775.5 82.5" stroke-width="5.5" stroke="rgba(246, 240, 30, 1)"></path><path d="M866.25 49.5 a8.25 8.25 0 1 0 16.5 0 a8.25 8.25 0 1 0 -16.5 0zM767.25 82.5 a8.25 8.25 0 1 0 16.5 0 a8.25 8.25 0 1 0 -16.5 0z" fill="rgba(246, 240, 30, 1)"></path><path d="M1435.5 643.5L1435.5 775.5" stroke-width="5.5" stroke="rgba(246, 240, 30, 1)"></path><path d="M1427.25 643.5 a8.25 8.25 0 1 0 16.5 0 a8.25 8.25 0 1 0 -16.5 0zM1427.25 775.5 a8.25 8.25 0 1 0 16.5 0 a8.25 8.25 0 1 0 -16.5 0z" fill="rgba(246, 240, 30, 1)"></path><path d="M1072.5 247.5L1072.5 313.5L1039.5 346.5" stroke-width="5.5" stroke="rgba(246, 240, 30, 1)"></path><path d="M1064.25 247.5 a8.25 8.25 0 1 0 16.5 0 a8.25 8.25 0 1 0 -16.5 0zM1031.25 346.5 a8.25 8.25 0 1 0 16.5 0 a8.25 8.25 0 1 0 -16.5 0z" fill="rgba(246, 240, 30, 1)"></path><path d="M940.5 49.5L907.5 16.5L874.5 16.5" stroke-width="5.5" stroke="rgba(246, 240, 30, 1)"></path><path d="M932.25 49.5 a8.25 8.25 0 1 0 16.5 0 a8.25 8.25 0 1 0 -16.5 0zM866.25 16.5 a8.25 8.25 0 1 0 16.5 0 a8.25 8.25 0 1 0 -16.5 0z" fill="rgba(246, 240, 30, 1)"></path><path d="M1369.5 709.5L1369.5 775.5" stroke-width="5.5" stroke="rgba(246, 240, 30, 1)"></path><path d="M1361.25 709.5 a8.25 8.25 0 1 0 16.5 0 a8.25 8.25 0 1 0 -16.5 0zM1361.25 775.5 a8.25 8.25 0 1 0 16.5 0 a8.25 8.25 0 1 0 -16.5 0z" fill="rgba(246, 240, 30, 1)"></path><path d="M379.5 775.5L379.5 742.5L412.5 709.5" stroke-width="5.5" stroke="rgba(246, 240, 30, 1)"></path><path d="M371.25 775.5 a8.25 8.25 0 1 0 16.5 0 a8.25 8.25 0 1 0 -16.5 0zM404.25 709.5 a8.25 8.25 0 1 0 16.5 0 a8.25 8.25 0 1 0 -16.5 0z" fill="rgba(246, 240, 30, 1)"></path></g></g><defs><mask id="SvgjsMask1110"><rect width="1440" height="760" fill="#ffffff"></rect></mask><mask id="SvgjsMask1111"><rect width="1440" height="760" fill="white"></rect><path d="M1266.37 16.5 a4.13 4.13 0 1 0 8.26 0 a4.13 4.13 0 1 0 -8.26 0zM1068.37 511.5 a4.13 4.13 0 1 0 8.26 0 a4.13 4.13 0 1 0 -8.26 0z" fill="black"></path><path d="M639.37 511.5 a4.13 4.13 0 1 0 8.26 0 a4.13 4.13 0 1 0 -8.26 0zM12.37 16.5 a4.13 4.13 0 1 0 8.26 0 a4.13 4.13 0 1 0 -8.26 0z" fill="black"></path><path d="M540.37 280.5 a4.13 4.13 0 1 0 8.26 0 a4.13 4.13 0 1 0 -8.26 0zM1068.37 544.5 a4.13 4.13 0 1 0 8.26 0 a4.13 4.13 0 1 0 -8.26 0z" fill="black"></path><path d="M573.37 214.5 a4.13 4.13 0 1 0 8.26 0 a4.13 4.13 0 1 0 -8.26 0zM1200.37 148.5 a4.13 4.13 0 1 0 8.26 0 a4.13 4.13 0 1 0 -8.26 0z" fill="black"></path><path d="M441.37 445.5 a4.13 4.13 0 1 0 8.26 0 a4.13 4.13 0 1 0 -8.26 0zM144.37 412.5 a4.13 4.13 0 1 0 8.26 0 a4.13 4.13 0 1 0 -8.26 0z" fill="black"></path><path d="M804.37 16.5 a4.13 4.13 0 1 0 8.26 0 a4.13 4.13 0 1 0 -8.26 0zM441.37 280.5 a4.13 4.13 0 1 0 8.26 0 a4.13 4.13 0 1 0 -8.26 0z" fill="black"></path><path d="M606.37 544.5 a4.13 4.13 0 1 0 8.26 0 a4.13 4.13 0 1 0 -8.26 0zM1233.37 544.5 a4.13 4.13 0 1 0 8.26 0 a4.13 4.13 0 1 0 -8.26 0z" fill="black"></path><path d="M1233.37 16.5 a4.13 4.13 0 1 0 8.26 0 a4.13 4.13 0 1 0 -8.26 0zM672.37 181.5 a4.13 4.13 0 1 0 8.26 0 a4.13 4.13 0 1 0 -8.26 0z" fill="black"></path><path d="M1398.37 16.5 a4.13 4.13 0 1 0 8.26 0 a4.13 4.13 0 1 0 -8.26 0zM1299.37 16.5 a4.13 4.13 0 1 0 8.26 0 a4.13 4.13 0 1 0 -8.26 0z" fill="black"></path><path d="M903.37 346.5 a4.13 4.13 0 1 0 8.26 0 a4.13 4.13 0 1 0 -8.26 0zM903.37 511.5 a4.13 4.13 0 1 0 8.26 0 a4.13 4.13 0 1 0 -8.26 0z" fill="black"></path><path d="M738.37 511.5 a4.13 4.13 0 1 0 8.26 0 a4.13 4.13 0 1 0 -8.26 0zM540.37 214.5 a4.13 4.13 0 1 0 8.26 0 a4.13 4.13 0 1 0 -8.26 0z" fill="black"></path><path d="M441.37 742.5 a4.13 4.13 0 1 0 8.26 0 a4.13 4.13 0 1 0 -8.26 0zM177.37 181.5 a4.13 4.13 0 1 0 8.26 0 a4.13 4.13 0 1 0 -8.26 0z" fill="black"></path><path d="M1167.37 247.5 a4.13 4.13 0 1 0 8.26 0 a4.13 4.13 0 1 0 -8.26 0zM606.37 247.5 a4.13 4.13 0 1 0 8.26 0 a4.13 4.13 0 1 0 -8.26 0z" fill="black"></path><path d="M705.37 412.5 a4.13 4.13 0 1 0 8.26 0 a4.13 4.13 0 1 0 -8.26 0zM870.37 511.5 a4.13 4.13 0 1 0 8.26 0 a4.13 4.13 0 1 0 -8.26 0z" fill="black"></path><path d="M276.37 247.5 a4.13 4.13 0 1 0 8.26 0 a4.13 4.13 0 1 0 -8.26 0zM210.37 181.5 a4.13 4.13 0 1 0 8.26 0 a4.13 4.13 0 1 0 -8.26 0z" fill="black"></path><path d="M111.37 280.5 a4.13 4.13 0 1 0 8.26 0 a4.13 4.13 0 1 0 -8.26 0zM12.37 280.5 a4.13 4.13 0 1 0 8.26 0 a4.13 4.13 0 1 0 -8.26 0z" fill="black"></path><path d="M639.37 577.5 a4.13 4.13 0 1 0 8.26 0 a4.13 4.13 0 1 0 -8.26 0zM1266.37 775.5 a4.13 4.13 0 1 0 8.26 0 a4.13 4.13 0 1 0 -8.26 0z" fill="black"></path><path d="M474.37 775.5 a4.13 4.13 0 1 0 8.26 0 a4.13 4.13 0 1 0 -8.26 0zM474.37 379.5 a4.13 4.13 0 1 0 8.26 0 a4.13 4.13 0 1 0 -8.26 0z" fill="black"></path><path d="M507.37 676.5 a4.13 4.13 0 1 0 8.26 0 a4.13 4.13 0 1 0 -8.26 0zM606.37 577.5 a4.13 4.13 0 1 0 8.26 0 a4.13 4.13 0 1 0 -8.26 0z" fill="black"></path><path d="M1431.37 445.5 a4.13 4.13 0 1 0 8.26 0 a4.13 4.13 0 1 0 -8.26 0zM1233.37 511.5 a4.13 4.13 0 1 0 8.26 0 a4.13 4.13 0 1 0 -8.26 0z" fill="black"></path><path d="M1134.37 676.5 a4.13 4.13 0 1 0 8.26 0 a4.13 4.13 0 1 0 -8.26 0zM837.37 643.5 a4.13 4.13 0 1 0 8.26 0 a4.13 4.13 0 1 0 -8.26 0z" fill="black"></path><path d="M507.37 412.5 a4.13 4.13 0 1 0 8.26 0 a4.13 4.13 0 1 0 -8.26 0zM507.37 643.5 a4.13 4.13 0 1 0 8.26 0 a4.13 4.13 0 1 0 -8.26 0z" fill="black"></path><path d="M1167.37 643.5 a4.13 4.13 0 1 0 8.26 0 a4.13 4.13 0 1 0 -8.26 0zM870.37 709.5 a4.13 4.13 0 1 0 8.26 0 a4.13 4.13 0 1 0 -8.26 0z" fill="black"></path><path d="M1398.37 742.5 a4.13 4.13 0 1 0 8.26 0 a4.13 4.13 0 1 0 -8.26 0zM1398.37 379.5 a4.13 4.13 0 1 0 8.26 0 a4.13 4.13 0 1 0 -8.26 0z" fill="black"></path><path d="M12.37 577.5 a4.13 4.13 0 1 0 8.26 0 a4.13 4.13 0 1 0 -8.26 0zM243.37 445.5 a4.13 4.13 0 1 0 8.26 0 a4.13 4.13 0 1 0 -8.26 0z" fill="black"></path><path d="M540.37 82.5 a4.13 4.13 0 1 0 8.26 0 a4.13 4.13 0 1 0 -8.26 0zM177.37 16.5 a4.13 4.13 0 1 0 8.26 0 a4.13 4.13 0 1 0 -8.26 0z" fill="black"></path><path d="M441.37 544.5 a4.13 4.13 0 1 0 8.26 0 a4.13 4.13 0 1 0 -8.26 0zM309.37 445.5 a4.13 4.13 0 1 0 8.26 0 a4.13 4.13 0 1 0 -8.26 0z" fill="black"></path><path d="M1233.37 280.5 a4.13 4.13 0 1 0 8.26 0 a4.13 4.13 0 1 0 -8.26 0zM1233.37 49.5 a4.13 4.13 0 1 0 8.26 0 a4.13 4.13 0 1 0 -8.26 0z" fill="black"></path><path d="M243.37 544.5 a4.13 4.13 0 1 0 8.26 0 a4.13 4.13 0 1 0 -8.26 0zM111.37 313.5 a4.13 4.13 0 1 0 8.26 0 a4.13 4.13 0 1 0 -8.26 0z" fill="black"></path><path d="M1134.37 379.5 a4.13 4.13 0 1 0 8.26 0 a4.13 4.13 0 1 0 -8.26 0zM1200.37 181.5 a4.13 4.13 0 1 0 8.26 0 a4.13 4.13 0 1 0 -8.26 0z" fill="black"></path><path d="M12.37 643.5 a4.13 4.13 0 1 0 8.26 0 a4.13 4.13 0 1 0 -8.26 0zM12.37 775.5 a4.13 4.13 0 1 0 8.26 0 a4.13 4.13 0 1 0 -8.26 0z" fill="black"></path><path d="M606.37 49.5 a4.13 4.13 0 1 0 8.26 0 a4.13 4.13 0 1 0 -8.26 0zM771.37 16.5 a4.13 4.13 0 1 0 8.26 0 a4.13 4.13 0 1 0 -8.26 0z" fill="black"></path><path d="M1365.37 544.5 a4.13 4.13 0 1 0 8.26 0 a4.13 4.13 0 1 0 -8.26 0zM1134.37 709.5 a4.13 4.13 0 1 0 8.26 0 a4.13 4.13 0 1 0 -8.26 0z" fill="black"></path><path d="M1332.37 478.5 a4.13 4.13 0 1 0 8.26 0 a4.13 4.13 0 1 0 -8.26 0zM1167.37 709.5 a4.13 4.13 0 1 0 8.26 0 a4.13 4.13 0 1 0 -8.26 0z" fill="black"></path><path d="M606.37 742.5 a4.13 4.13 0 1 0 8.26 0 a4.13 4.13 0 1 0 -8.26 0zM540.37 676.5 a4.13 4.13 0 1 0 8.26 0 a4.13 4.13 0 1 0 -8.26 0z" fill="black"></path><path d="M1365.37 148.5 a4.13 4.13 0 1 0 8.26 0 a4.13 4.13 0 1 0 -8.26 0zM936.37 478.5 a4.13 4.13 0 1 0 8.26 0 a4.13 4.13 0 1 0 -8.26 0z" fill="black"></path><path d="M1233.37 742.5 a4.13 4.13 0 1 0 8.26 0 a4.13 4.13 0 1 0 -8.26 0zM1365.37 643.5 a4.13 4.13 0 1 0 8.26 0 a4.13 4.13 0 1 0 -8.26 0z" fill="black"></path><path d="M837.37 379.5 a4.13 4.13 0 1 0 8.26 0 a4.13 4.13 0 1 0 -8.26 0zM771.37 445.5 a4.13 4.13 0 1 0 8.26 0 a4.13 4.13 0 1 0 -8.26 0z" fill="black"></path><path d="M969.37 346.5 a4.13 4.13 0 1 0 8.26 0 a4.13 4.13 0 1 0 -8.26 0zM1167.37 313.5 a4.13 4.13 0 1 0 8.26 0 a4.13 4.13 0 1 0 -8.26 0z" fill="black"></path><path d="M771.37 148.5 a4.13 4.13 0 1 0 8.26 0 a4.13 4.13 0 1 0 -8.26 0zM705.37 181.5 a4.13 4.13 0 1 0 8.26 0 a4.13 4.13 0 1 0 -8.26 0z" fill="black"></path><path d="M441.37 214.5 a4.13 4.13 0 1 0 8.26 0 a4.13 4.13 0 1 0 -8.26 0zM210.37 16.5 a4.13 4.13 0 1 0 8.26 0 a4.13 4.13 0 1 0 -8.26 0z" fill="black"></path><path d="M342.37 16.5 a4.13 4.13 0 1 0 8.26 0 a4.13 4.13 0 1 0 -8.26 0zM474.37 181.5 a4.13 4.13 0 1 0 8.26 0 a4.13 4.13 0 1 0 -8.26 0z" fill="black"></path><path d="M1332.37 214.5 a4.13 4.13 0 1 0 8.26 0 a4.13 4.13 0 1 0 -8.26 0zM936.37 445.5 a4.13 4.13 0 1 0 8.26 0 a4.13 4.13 0 1 0 -8.26 0z" fill="black"></path><path d="M606.37 676.5 a4.13 4.13 0 1 0 8.26 0 a4.13 4.13 0 1 0 -8.26 0zM606.37 610.5 a4.13 4.13 0 1 0 8.26 0 a4.13 4.13 0 1 0 -8.26 0z" fill="black"></path><path d="M1299.37 181.5 a4.13 4.13 0 1 0 8.26 0 a4.13 4.13 0 1 0 -8.26 0zM1167.37 379.5 a4.13 4.13 0 1 0 8.26 0 a4.13 4.13 0 1 0 -8.26 0z" fill="black"></path><path d="M309.37 643.5 a4.13 4.13 0 1 0 8.26 0 a4.13 4.13 0 1 0 -8.26 0zM375.37 610.5 a4.13 4.13 0 1 0 8.26 0 a4.13 4.13 0 1 0 -8.26 0z" fill="black"></path><path d="M144.37 49.5 a4.13 4.13 0 1 0 8.26 0 a4.13 4.13 0 1 0 -8.26 0zM12.37 247.5 a4.13 4.13 0 1 0 8.26 0 a4.13 4.13 0 1 0 -8.26 0z" fill="black"></path><path d="M1002.37 412.5 a4.13 4.13 0 1 0 8.26 0 a4.13 4.13 0 1 0 -8.26 0zM1134.37 313.5 a4.13 4.13 0 1 0 8.26 0 a4.13 4.13 0 1 0 -8.26 0z" fill="black"></path><path d="M903.37 676.5 a4.13 4.13 0 1 0 8.26 0 a4.13 4.13 0 1 0 -8.26 0zM1002.37 676.5 a4.13 4.13 0 1 0 8.26 0 a4.13 4.13 0 1 0 -8.26 0z" fill="black"></path><path d="M1332.37 181.5 a4.13 4.13 0 1 0 8.26 0 a4.13 4.13 0 1 0 -8.26 0zM1266.37 49.5 a4.13 4.13 0 1 0 8.26 0 a4.13 4.13 0 1 0 -8.26 0z" fill="black"></path><path d="M1365.37 82.5 a4.13 4.13 0 1 0 8.26 0 a4.13 4.13 0 1 0 -8.26 0zM1431.37 148.5 a4.13 4.13 0 1 0 8.26 0 a4.13 4.13 0 1 0 -8.26 0z" fill="black"></path><path d="M309.37 346.5 a4.13 4.13 0 1 0 8.26 0 a4.13 4.13 0 1 0 -8.26 0zM309.37 247.5 a4.13 4.13 0 1 0 8.26 0 a4.13 4.13 0 1 0 -8.26 0z" fill="black"></path><path d="M276.37 412.5 a4.13 4.13 0 1 0 8.26 0 a4.13 4.13 0 1 0 -8.26 0zM210.37 214.5 a4.13 4.13 0 1 0 8.26 0 a4.13 4.13 0 1 0 -8.26 0z" fill="black"></path><path d="M375.37 511.5 a4.13 4.13 0 1 0 8.26 0 a4.13 4.13 0 1 0 -8.26 0zM375.37 445.5 a4.13 4.13 0 1 0 8.26 0 a4.13 4.13 0 1 0 -8.26 0z" fill="black"></path><path d="M804.37 313.5 a4.13 4.13 0 1 0 8.26 0 a4.13 4.13 0 1 0 -8.26 0zM606.37 280.5 a4.13 4.13 0 1 0 8.26 0 a4.13 4.13 0 1 0 -8.26 0z" fill="black"></path><path d="M111.37 511.5 a4.13 4.13 0 1 0 8.26 0 a4.13 4.13 0 1 0 -8.26 0zM210.37 412.5 a4.13 4.13 0 1 0 8.26 0 a4.13 4.13 0 1 0 -8.26 0z" fill="black"></path><path d="M309.37 610.5 a4.13 4.13 0 1 0 8.26 0 a4.13 4.13 0 1 0 -8.26 0zM243.37 610.5 a4.13 4.13 0 1 0 8.26 0 a4.13 4.13 0 1 0 -8.26 0z" fill="black"></path><path d="M540.37 445.5 a4.13 4.13 0 1 0 8.26 0 a4.13 4.13 0 1 0 -8.26 0zM540.37 610.5 a4.13 4.13 0 1 0 8.26 0 a4.13 4.13 0 1 0 -8.26 0z" fill="black"></path><path d="M342.37 346.5 a4.13 4.13 0 1 0 8.26 0 a4.13 4.13 0 1 0 -8.26 0zM309.37 412.5 a4.13 4.13 0 1 0 8.26 0 a4.13 4.13 0 1 0 -8.26 0z" fill="black"></path><path d="M573.37 82.5 a4.13 4.13 0 1 0 8.26 0 a4.13 4.13 0 1 0 -8.26 0zM375.37 16.5 a4.13 4.13 0 1 0 8.26 0 a4.13 4.13 0 1 0 -8.26 0z" fill="black"></path><path d="M606.37 313.5 a4.13 4.13 0 1 0 8.26 0 a4.13 4.13 0 1 0 -8.26 0zM672.37 412.5 a4.13 4.13 0 1 0 8.26 0 a4.13 4.13 0 1 0 -8.26 0z" fill="black"></path><path d="M12.37 214.5 a4.13 4.13 0 1 0 8.26 0 a4.13 4.13 0 1 0 -8.26 0zM111.37 49.5 a4.13 4.13 0 1 0 8.26 0 a4.13 4.13 0 1 0 -8.26 0z" fill="black"></path><path d="M78.37 511.5 a4.13 4.13 0 1 0 8.26 0 a4.13 4.13 0 1 0 -8.26 0zM177.37 643.5 a4.13 4.13 0 1 0 8.26 0 a4.13 4.13 0 1 0 -8.26 0z" fill="black"></path><path d="M1266.37 643.5 a4.13 4.13 0 1 0 8.26 0 a4.13 4.13 0 1 0 -8.26 0zM1365.37 379.5 a4.13 4.13 0 1 0 8.26 0 a4.13 4.13 0 1 0 -8.26 0z" fill="black"></path><path d="M639.37 49.5 a4.13 4.13 0 1 0 8.26 0 a4.13 4.13 0 1 0 -8.26 0zM540.37 16.5 a4.13 4.13 0 1 0 8.26 0 a4.13 4.13 0 1 0 -8.26 0z" fill="black"></path><path d="M969.37 16.5 a4.13 4.13 0 1 0 8.26 0 a4.13 4.13 0 1 0 -8.26 0zM1200.37 16.5 a4.13 4.13 0 1 0 8.26 0 a4.13 4.13 0 1 0 -8.26 0z" fill="black"></path><path d="M276.37 643.5 a4.13 4.13 0 1 0 8.26 0 a4.13 4.13 0 1 0 -8.26 0zM276.37 742.5 a4.13 4.13 0 1 0 8.26 0 a4.13 4.13 0 1 0 -8.26 0z" fill="black"></path><path d="M1365.37 676.5 a4.13 4.13 0 1 0 8.26 0 a4.13 4.13 0 1 0 -8.26 0zM1299.37 775.5 a4.13 4.13 0 1 0 8.26 0 a4.13 4.13 0 1 0 -8.26 0z" fill="black"></path><path d="M1068.37 346.5 a4.13 4.13 0 1 0 8.26 0 a4.13 4.13 0 1 0 -8.26 0zM936.37 379.5 a4.13 4.13 0 1 0 8.26 0 a4.13 4.13 0 1 0 -8.26 0z" fill="black"></path><path d="M45.37 544.5 a4.13 4.13 0 1 0 8.26 0 a4.13 4.13 0 1 0 -8.26 0zM144.37 643.5 a4.13 4.13 0 1 0 8.26 0 a4.13 4.13 0 1 0 -8.26 0z" fill="black"></path><path d="M45.37 511.5 a4.13 4.13 0 1 0 8.26 0 a4.13 4.13 0 1 0 -8.26 0zM111.37 412.5 a4.13 4.13 0 1 0 8.26 0 a4.13 4.13 0 1 0 -8.26 0z" fill="black"></path><path d="M903.37 577.5 a4.13 4.13 0 1 0 8.26 0 a4.13 4.13 0 1 0 -8.26 0zM1035.37 577.5 a4.13 4.13 0 1 0 8.26 0 a4.13 4.13 0 1 0 -8.26 0z" fill="black"></path><path d="M573.37 742.5 a4.13 4.13 0 1 0 8.26 0 a4.13 4.13 0 1 0 -8.26 0zM507.37 775.5 a4.13 4.13 0 1 0 8.26 0 a4.13 4.13 0 1 0 -8.26 0z" fill="black"></path><path d="M837.37 313.5 a4.13 4.13 0 1 0 8.26 0 a4.13 4.13 0 1 0 -8.26 0zM771.37 379.5 a4.13 4.13 0 1 0 8.26 0 a4.13 4.13 0 1 0 -8.26 0z" fill="black"></path><path d="M771.37 577.5 a4.13 4.13 0 1 0 8.26 0 a4.13 4.13 0 1 0 -8.26 0zM870.37 577.5 a4.13 4.13 0 1 0 8.26 0 a4.13 4.13 0 1 0 -8.26 0z" fill="black"></path><path d="M1167.37 16.5 a4.13 4.13 0 1 0 8.26 0 a4.13 4.13 0 1 0 -8.26 0zM1002.37 16.5 a4.13 4.13 0 1 0 8.26 0 a4.13 4.13 0 1 0 -8.26 0z" fill="black"></path><path d="M672.37 742.5 a4.13 4.13 0 1 0 8.26 0 a4.13 4.13 0 1 0 -8.26 0zM573.37 775.5 a4.13 4.13 0 1 0 8.26 0 a4.13 4.13 0 1 0 -8.26 0z" fill="black"></path><path d="M45.37 115.5 a4.13 4.13 0 1 0 8.26 0 a4.13 4.13 0 1 0 -8.26 0zM78.37 49.5 a4.13 4.13 0 1 0 8.26 0 a4.13 4.13 0 1 0 -8.26 0z" fill="black"></path><path d="M177.37 544.5 a4.13 4.13 0 1 0 8.26 0 a4.13 4.13 0 1 0 -8.26 0zM243.37 478.5 a4.13 4.13 0 1 0 8.26 0 a4.13 4.13 0 1 0 -8.26 0z" fill="black"></path><path d="M903.37 148.5 a4.13 4.13 0 1 0 8.26 0 a4.13 4.13 0 1 0 -8.26 0zM738.37 181.5 a4.13 4.13 0 1 0 8.26 0 a4.13 4.13 0 1 0 -8.26 0z" fill="black"></path><path d="M78.37 775.5 a4.13 4.13 0 1 0 8.26 0 a4.13 4.13 0 1 0 -8.26 0zM111.37 709.5 a4.13 4.13 0 1 0 8.26 0 a4.13 4.13 0 1 0 -8.26 0z" fill="black"></path><path d="M12.37 346.5 a4.13 4.13 0 1 0 8.26 0 a4.13 4.13 0 1 0 -8.26 0zM78.37 379.5 a4.13 4.13 0 1 0 8.26 0 a4.13 4.13 0 1 0 -8.26 0z" fill="black"></path><path d="M639.37 643.5 a4.13 4.13 0 1 0 8.26 0 a4.13 4.13 0 1 0 -8.26 0zM738.37 775.5 a4.13 4.13 0 1 0 8.26 0 a4.13 4.13 0 1 0 -8.26 0z" fill="black"></path><path d="M804.37 181.5 a4.13 4.13 0 1 0 8.26 0 a4.13 4.13 0 1 0 -8.26 0zM870.37 181.5 a4.13 4.13 0 1 0 8.26 0 a4.13 4.13 0 1 0 -8.26 0z" fill="black"></path><path d="M1167.37 445.5 a4.13 4.13 0 1 0 8.26 0 a4.13 4.13 0 1 0 -8.26 0zM1068.37 445.5 a4.13 4.13 0 1 0 8.26 0 a4.13 4.13 0 1 0 -8.26 0z" fill="black"></path><path d="M474.37 82.5 a4.13 4.13 0 1 0 8.26 0 a4.13 4.13 0 1 0 -8.26 0zM408.37 49.5 a4.13 4.13 0 1 0 8.26 0 a4.13 4.13 0 1 0 -8.26 0z" fill="black"></path><path d="M606.37 709.5 a4.13 4.13 0 1 0 8.26 0 a4.13 4.13 0 1 0 -8.26 0zM672.37 709.5 a4.13 4.13 0 1 0 8.26 0 a4.13 4.13 0 1 0 -8.26 0z" fill="black"></path><path d="M408.37 379.5 a4.13 4.13 0 1 0 8.26 0 a4.13 4.13 0 1 0 -8.26 0zM342.37 280.5 a4.13 4.13 0 1 0 8.26 0 a4.13 4.13 0 1 0 -8.26 0z" fill="black"></path><path d="M1266.37 181.5 a4.13 4.13 0 1 0 8.26 0 a4.13 4.13 0 1 0 -8.26 0zM1266.37 247.5 a4.13 4.13 0 1 0 8.26 0 a4.13 4.13 0 1 0 -8.26 0z" fill="black"></path><path d="M342.37 115.5 a4.13 4.13 0 1 0 8.26 0 a4.13 4.13 0 1 0 -8.26 0zM441.37 181.5 a4.13 4.13 0 1 0 8.26 0 a4.13 4.13 0 1 0 -8.26 0z" fill="black"></path><path d="M936.37 280.5 a4.13 4.13 0 1 0 8.26 0 a4.13 4.13 0 1 0 -8.26 0zM1002.37 280.5 a4.13 4.13 0 1 0 8.26 0 a4.13 4.13 0 1 0 -8.26 0z" fill="black"></path><path d="M705.37 775.5 a4.13 4.13 0 1 0 8.26 0 a4.13 4.13 0 1 0 -8.26 0zM639.37 775.5 a4.13 4.13 0 1 0 8.26 0 a4.13 4.13 0 1 0 -8.26 0z" fill="black"></path><path d="M375.37 115.5 a4.13 4.13 0 1 0 8.26 0 a4.13 4.13 0 1 0 -8.26 0zM441.37 148.5 a4.13 4.13 0 1 0 8.26 0 a4.13 4.13 0 1 0 -8.26 0z" fill="black"></path><path d="M144.37 511.5 a4.13 4.13 0 1 0 8.26 0 a4.13 4.13 0 1 0 -8.26 0zM210.37 445.5 a4.13 4.13 0 1 0 8.26 0 a4.13 4.13 0 1 0 -8.26 0z" fill="black"></path><path d="M870.37 49.5 a4.13 4.13 0 1 0 8.26 0 a4.13 4.13 0 1 0 -8.26 0zM771.37 82.5 a4.13 4.13 0 1 0 8.26 0 a4.13 4.13 0 1 0 -8.26 0z" fill="black"></path><path d="M1431.37 643.5 a4.13 4.13 0 1 0 8.26 0 a4.13 4.13 0 1 0 -8.26 0zM1431.37 775.5 a4.13 4.13 0 1 0 8.26 0 a4.13 4.13 0 1 0 -8.26 0z" fill="black"></path><path d="M1068.37 247.5 a4.13 4.13 0 1 0 8.26 0 a4.13 4.13 0 1 0 -8.26 0zM1035.37 346.5 a4.13 4.13 0 1 0 8.26 0 a4.13 4.13 0 1 0 -8.26 0z" fill="black"></path><path d="M936.37 49.5 a4.13 4.13 0 1 0 8.26 0 a4.13 4.13 0 1 0 -8.26 0zM870.37 16.5 a4.13 4.13 0 1 0 8.26 0 a4.13 4.13 0 1 0 -8.26 0z" fill="black"></path><path d="M1365.37 709.5 a4.13 4.13 0 1 0 8.26 0 a4.13 4.13 0 1 0 -8.26 0zM1365.37 775.5 a4.13 4.13 0 1 0 8.26 0 a4.13 4.13 0 1 0 -8.26 0z" fill="black"></path><path d="M375.37 775.5 a4.13 4.13 0 1 0 8.26 0 a4.13 4.13 0 1 0 -8.26 0zM408.37 709.5 a4.13 4.13 0 1 0 8.26 0 a4.13 4.13 0 1 0 -8.26 0z" fill="black"></path></mask></defs></svg>